/* XPM */
static char *xpm_[] = {
/* columns rows colors chars-per-pixel */
"64 64 247 2 ",
"   c #07151B",
".  c #040D0D",
"X  c #091A24",
"o  c #001C39",
"O  c #131C24",
"+  c #0D212A",
"@  c #18262B",
"#  c #182C37",
"$  c #1B313B",
"%  c #0D2737",
"&  c #242B2C",
"*  c #242E32",
"=  c #2B3434",
"-  c #2B393A",
";  c #273538",
":  c #333B3B",
">  c #373936",
",  c #29342D",
"<  c #3A433B",
"1  c #2D403E",
"2  c #032848",
"3  c #1B3747",
"4  c #073956",
"5  c #0C3652",
"6  c #243944",
"7  c #283C48",
"8  c #223F51",
"9  c #333E46",
"0  c #19455E",
"q  c #2D4149",
"w  c #3A4444",
"e  c #34454C",
"r  c #39484A",
"t  c #2B4A5C",
"y  c #284456",
"u  c #344A55",
"i  c #3B4C53",
"p  c #334C5B",
"a  c #3A4D5A",
"s  c #334652",
"d  c #3C515C",
"f  c #38515A",
"g  c #1B4A67",
"h  c #1F506C",
"j  c #274B65",
"k  c #2C5369",
"l  c #335365",
"z  c #3C5562",
"x  c #3B5B6B",
"c  c #395868",
"v  c #2B5975",
"b  c #3B5D73",
"n  c #324F62",
"m  c #3E6277",
"M  c #454B4A",
"N  c #4A514F",
"B  c #444E53",
"V  c #445355",
"C  c #43545B",
"Z  c #4D5C5D",
"A  c #4B5457",
"S  c #535B5A",
"D  c #52544E",
"F  c #58625C",
"G  c #5F604E",
"H  c #65675F",
"J  c #445A64",
"K  c #4B5C62",
"L  c #435D6B",
"P  c #465967",
"I  c #525E63",
"U  c #415F72",
"Y  c #4C636C",
"T  c #47616A",
"R  c #536364",
"E  c #5B6465",
"W  c #52636B",
"Q  c #5B6A6B",
"!  c #59696B",
"~  c #436273",
"^  c #4A6574",
"/  c #4C6B7B",
"(  c #496878",
")  c #516673",
"_  c #546A74",
"`  c #5B6D73",
"'  c #536D7B",
"]  c #596E7A",
"[  c #5C7176",
"{  c #55727D",
"}  c #5C727B",
"|  c #5D797D",
" . c #656C67",
".. c #66736D",
"X. c #616D74",
"o. c #637274",
"O. c #63757B",
"+. c #65797E",
"@. c #6C7B7C",
"#. c #6B7675",
"$. c #727C7B",
"%. c #757A73",
"&. c #747569",
"*. c #7A847D",
"=. c #848A7C",
"-. c #366B8E",
";. c #3D78A3",
":. c #155480",
">. c #476C83",
",. c #526F80",
"<. c #4B7084",
"1. c #547383",
"2. c #5B7583",
"3. c #5D7985",
"4. c #5C7B8B",
"5. c #577789",
"6. c #467B99",
"7. c #5D7E91",
"8. c #637B84",
"9. c #6B7D83",
"0. c #637E8A",
"q. c #6A7C88",
"w. c #737D82",
"e. c #477FA3",
"r. c #5F8090",
"t. c #6D8185",
"y. c #64818C",
"u. c #6B838C",
"i. c #6A868C",
"p. c #748284",
"a. c #73858B",
"s. c #75898D",
"d. c #7C8B8C",
"f. c #7A8686",
"g. c #648392",
"h. c #6B8692",
"j. c #6D8A94",
"k. c #6B8B9B",
"l. c #738C94",
"z. c #7B8E94",
"x. c #738E99",
"c. c #768B95",
"v. c #7D9195",
"b. c #76929C",
"n. c #7B939B",
"m. c #7C979D",
"M. c #7B9089",
"N. c #5088AA",
"B. c #7A96A2",
"V. c #7D9AA4",
"C. c #7596A5",
"Z. c #7FA0B1",
"A. c #828B88",
"S. c #87938D",
"D. c #97998C",
"F. c #828F94",
"G. c #849394",
"H. c #8A9594",
"J. c #83959B",
"K. c #85999D",
"L. c #8C9B9B",
"P. c #8B9797",
"I. c #959C94",
"U. c #919D9D",
"Y. c #959995",
"T. c #908D84",
"R. c #94A19D",
"E. c #9CA49C",
"W. c #9BA38C",
"Q. c #A3A89C",
"!. c #B0B29C",
"~. c #849BA2",
"^. c #8B9DA2",
"/. c #869CA7",
"(. c #929FA1",
"). c #8DA1A4",
"_. c #8CA3AA",
"`. c #85A1AA",
"'. c #94A3A4",
"]. c #9AA5A4",
"[. c #9CA9A5",
"{. c #93A5AA",
"}. c #95A9AD",
"|. c #9CABAC",
" X c #99A7A8",
".X c #96ABB2",
"XX c #9CADB1",
"oX c #95A7B1",
"OX c #9DB1B6",
"+X c #8CA5B3",
"@X c #A4ABA4",
"#X c #A2ADAC",
"$X c #A8ACA5",
"%X c #A4B1AD",
"&X c #ABB3AC",
"*X c #ACB1A4",
"=X c #B4B7AD",
"-X c #A3AFB1",
";X c #A4B3B3",
":X c #AAB5B4",
">X c #ADB9B5",
",X c #ADBBBB",
"<X c #A6B6BA",
"1X c #B3BBB4",
"2X c #B2BDBB",
"3X c #B8BCB3",
"4X c #C3BEB8",
"5X c #B5C1BB",
"6X c #BBC3BC",
"7X c #BBC2B6",
"8X c #C2C5BB",
"9X c #C5CABD",
"0X c #D6D4BD",
"qX c #ACBDC4",
"wX c #B1BDC2",
"eX c #97B2C4",
"rX c #B4C2C2",
"tX c #BBC5C2",
"yX c #BEC9C3",
"uX c #BBC9CC",
"iX c #B5C6CE",
"pX c #C4CBC4",
"aX c #CACDC4",
"sX c #C4CDC9",
"dX c #C8CBC7",
"fX c #CCD2C6",
"gX c #CDD2CB",
"hX c #C7D1CA",
"jX c #D3D4CC",
"kX c #D4D7C9",
"lX c #CED7D3",
"zX c #D3D6D2",
"xX c #D5DBD3",
"cX c #DADDD4",
"vX c #D7DEDA",
"bX c #D2CEC5",
"nX c #DCE2D4",
"mX c #DAE3DA",
"MX c #DCE1CD",
"NX c #E5E7DA",
"BX c #E5E3CD",
"VX c #D1DDE3",
"CX c #D8E5E7",
"ZX c #E8EAE4",
"AX c #E5F4F4",
"SX c #F3F3ED",
"DX c #E0DECF",
/* pixels */
"SXD.ZXBX0X=XBXkXNX1X7XSXxX9X&XjXzXDXNXjXbXaXaXjXbX8X9XfX@XI.#.*.*.Y.R.pXQ.=X7X6X&X1XE.A.#...f.L.v.d.P.{.J.K.W C C #.> M S.w.) 3 ",
"SXSXNXBXBX!.9X8XE.I.5XhXxXhXZXZXxXD.dXdXpXzX6XhX1XjXpXS.&Xf.*.%.f.S.yX>X&X5X&X,X>X;X'.Z ! ! @.d.L.L.@.'.K.m.Y J ^.w > =.A.@.8.3 ",
"SX9XZXNX0XW.9X1XsXmXlXmX&XhXCXZXAXzXVXpXA.2XsXtX X5XuXd.M.{.s.d.L.H.,X,X;X,X<XOX)..Xz.} i.8.u.[ O.d.z.@.` [ ` 8.K S < A.$.O.q.3 ",
"jX9XBXBX9X=X< %.p.E  .#.%. .*.*.....A.f.o.o.o.X.....Q A r w e # * q V i A i q i r 9 s e r a i u i - q e * 7 6 e 9 = N A.P.a.2.3 ",
"9XT.D.=.G > @XtXvXCXZXmXlXcXxX7XT.8XjX8XdXpXbXbXpXW.7X6X7XE.M F $.&X1X1X&X*.&XI.Y.H.#X].U.G.H.L.K.v.K.s.[ e } } X.  & . X.O.# ( ",
"jXD.&.0X> %.gX%.w.#.#.F %.%.=.&. .%.H  . .H  . .D D  .F ..D N 1 w S F N A M N N M A w w M M r e - i r r ; $ $ 6 = * H & S e y t ",
"bXQ.DXcX< G nX@ A.-X@X%.*.D.*XS.Y.$.P.$.$.$.@.(.P.#.M.R.M.p.*.t.K T ` p.d.t.[ C C 9.^.c.Y Y u W q q r C ` C $ # @ #X= : X.q.y j ",
"bX*XNXNX< =.S.@ P.CX5XS.=.1X7XS.dX:X(.P.A.P.Y.#X%XL.L.%X;X'.rXi.t.+.z.[ s.s.v.a.K.~.<X/.n.h.u.] d ` O.@.8.[ +.J V uX= : O.x.8 m ",
"SX7XnXmX< ..AX# wX-XvXdXjXQ.aX6XfX*X*XI.I.Y.$X=X9X7XI.>X1XyX2XP.|.'.P.M.M.U.%X>X|.L.%XL.'.d.s.[ t.` ^.p.9.q.q.W Z :X< w a.c.j b ",
"SXnXmXMX< f.AX; X.,XdXbXnXNXxXjXnXkXjXI.=XQ.3X*X9X3XQ.3X6XhXdX@XR.E.R.S.f.[.1X@X:XR.%X|. XG.d.f.z.J.z.a.w.a.O.q.Z wXM w ` j.~ v ",
"SXkXZXZX< M.CX; #XzXcXzXNXDXNXNXcX9XaX1XaX3X=XbX8X!.D.Q.1X9XyX X[.L.R. XR. X:X[.5X;X&X|.'.(.H.f.J.K.^.^.K.n.J.W ! vXM M i V.( v ",
"ZXkXNXZX< *.AX, (.dXcXNXbXNXZXdX=XnXjXaXdXcXjXaX=X=X@XQ.>X1XyX>X[.'.'.L.M.R.,X,X,X>X%X|.'.;X'.z.a.~.{.G.{.d.F.` F.uXM A O.h.b -.",
"SX=XnXnXr M.AX1 ;XxXNXNXcXZXNXfXgXhXmXxXxXvXgXxX8X3X&X@X5X:X5X,X|.M.*.v.'.<X:X:X;X|.|.;X:X|.'.J.a.K.J.J.P.z.a.O.E vXM M J.x.k >.",
"ZX!.mXmXr S.CX1  X5XfXBXNXkXlXhXxX6X6XgXzXdXzXgXaX=X@XE.&X|.[.L.d.L.L.XXXXrX:X;X%X|.].#X;X'.{.'.J.s.9.(.(.o.Z O.A lXM N F.0.>.-.",
"SXjXNXmX, M.AX- :XgXkXNXcXNXNXxXzX6X2XhXdXzXzXxXaX&X=X1X@XE.|.(. X X'.5X|.,X;X2X|.#X'.'.|.|.-X{.L.J.'.U.p.O.9.! A vX: B q.+X>.6.",
"SX4XjXmX= d.'.- 1XcXBXMXBXcXnXgXgXaXhXzXzXzXgXjXpX@X>XtX[. X;X(.'.<X;X,XA.>X>X#X#X#XU.U.'.^.F.9.K.c.@.F.L.9.E A I wX& = (.+Xy 6.",
"SX8XmXvX; f.uX; 5XyXmXxXkXxXkX7X6XnXfXxXgX6XmXpXdX#X:X@X]. X<X'.>X;XL.'.(.;X;X;X-X].U.L.^.}.{.J.K.J.;X` [ R [ Z A.pX= , S./.>.>.",
"NXcXmXxX- p.CX1 %XyX6XhXkXhXpXE.yX9XmXcXgX1XE.6X6X>X:XsX,XL.OXrXp.rX|.;XK.<X X X X].U.G.L.'.^.n.J.a.z.a.| *._ T < 8X< N Y./.k 6.",
"SX0XkXgX- ! CX1 >X6X5XpX6X7X*X&XE.5X*XgX6X6X*X=X@XsX:X5XP.<X,X5XrX:X%XP.(.|.%XXX|.#X|.(.(.J.J.J.d.q./.q.t._ q.` S.gXN N #.V.k -.",
"SXkXcXdX, p.AX1 [.5X6X5X7X6X%XE.&X@X1XdXtX1X1X=X2X#X%X2X5XrX,XrX2XrX X;Xv.(. XL.#X;X].'.(.K.v.n.a.9.q.a.z.a.q.Y A xXD w v.V.v 6.",
"ZXcXgXsX@ G.CX; |.5X5X6X1X6X&XI.H.Y.2X6X&X1X1X6X6X>XtX2X].|.;X,X;X:XrX|.).L.L.;X,X,X|.(.G.n.s.s.q.a.} a.8.} } t.#.1XM B L.V.0 6.",
"ZX9XlXmX, f.AX; ,X&X7XhX7X$XI.I.A.&XU.1X#XtX6X1XtXpX>X2Xf.H.'.:X#X|.|.,XOX_. X XrXU.L.'.d.f.+.i.q.u.q.u.t.] ] } Q lXN A K.C.v 6.",
"kX=XcXzX; p.CX$ '.@X6XpXpX6XE.A.E.Y.U.#X1X>X>X2XtXtX:X#X|.2X,X;X5X%X,X<X).rX,X|.P.S @.H.K.K.a.i.a.j.q.8.[ | 3.) V 6X< w M.m.g N.",
"0X8XgXhX= *.G.@ L.tXtXgXgX@X&XE.:X].uXtX-X:X2XpX2XtX2X#X[.yX;X,X;X%XXXOXXX<XOX<XR i L.).K.).K.l.h.] 8.q.| y.0.Y Z hX< 1 i.y.g N.",
"bXQ.8XpX- w.CX* A.2XdXzXhX7XE.R.H.rXG.U.P.:X2X2X#X>X2X2X#XsX,XwX5X;X<XOX).}.).M.@.z.z.'.{.).m.n.u.2.{ q.y.y.3.Y Z @X> : s.{ 0 N.",
"=X!.3XU.* d.CX6 @.F.tXpXhX6X5X[.H.H.U.L.>X].#XrX@XU.U.:XtXwXiX:X<X5X<XOX).G._.).a.G.J.K.}.J.v.`.q.u.x.3.i.y./ ) i yXw N K.C.k N.",
"!.I.$XU.* X.VX* U.].wXpXhXyX:XE.o.].#XG.2X>X-X>X(.(.wXwX;XuX,XwXXX;X}.{.OX_.n.K.O.K.;X}.}.v.h.v.0.8.i.] s.h.^ P r lXM - M.C.k -.",
"*XQ.Y.].& K sX- (.#X:X1X6XyX[.|.G.'.#XH.U.rX#X#X].H. X2X,X-XqX;X;X(.OX}.).).v.`.~.^._.^.v.m.l.l.x.i.h.j.a.y._ J < xXM N p.V.0 6.",
"D.=.&X(.O A X.6 U.-X5XyXsX>X>X%XU.;X].].rXrX,XU.A.$.f.XX,X<X<X(.|.;XL..X_.`.~./.^.~.K.~.z.l.u./.x.8.0.x.x.y._ P M 4X> S v.m.g -.",
"$X$X1XH.& K iX- U.2X>X6X6X&X[.[. X'.].U.(.,XrX(.w.A.(.,X|.wX|.{.XX;X.X_.m._.l.+X~.n.q.O.J.c.u.n.0.0.V.B.m.2.] c.I 3X= E a.h.k v ",
"Q.Q.$X].@ 9 uX# H.-X#X2XtXtX;X5X|.2X-X,X:X-X:X#XH.(. XwX<X^..X{.;X|.L._.i.l.n.q.} j.c.a.m.x.x.h.h.0.x.h.h.] 2.q.w.&X>  .A { j -.",
"=.=XA.#.O (.qX@ A.A.,X2X>X;X;X'.].:X>X:X,X2X:X|.U. X XXX{.XX.X{.d.K.qXv.l.x.7 Y t.u.t.n.8.c._.n.i.y.3.h.] ] c.q.w. .> & + + 2 m ",
"@X$X#.p.# O.iX# +.L.L.|.;X,X|.-X:X:X,X,X>X5X;X|. X].|.OX}.L.}._.J.<X^.n.l.c.n.] Y | l.t.y.y.V.i.y.j.l.{ 8.2.U ) e #XA w I n 0 v ",
"*XQ.S.F.@ _ qX@ ` @.@.H.].;X-X<X|.|.rXrX,X>X;X].L.;X|.%XR.OX}.m.n..X.X_.z.8.7 q._ s.l.8.x.y.j.b.i.y.l.{ k.2.P u 7 -X: S L >.4 e.",
"aX6XY.#X; } iX; O.d.d.G.|.L.-X{.<X}.5XrX<X;X,XXX}.P.}.OX.XK.OX}.OXV.{.{.^.i.! +.v.~.c.i.u.3.y.y.j.8.j.3.k.0.( z e (.: I 2.6.h -.",
"xX6X@X-X# ! ^.$ ` ^.H.'.'. XwX-X,X X X;X|.XX%X;XL.{.'.).).~._.}.qX_._.{.c.q.^.} n.K.i.| 8.} 8.i.h.8.0.0.5.2.( L i (.= S ) 5.h e.",
"cXxX6X,X; a .X+ 9.{. XH.G.|.-X X;X|.'.|.|.OX'.}._.L.}.~.m.`.OXm._.}.OXx.}.a.{.~._.c.l.y.0.{ V.h.8.' ' 3.,.,.^ P i w.: o.q.1.h e.",
"mXgXsX:XX K qX# 9.v.;Xp.L.].(. X X<X|.}. XOX'.}.)._.).K.m.V.m.V._._.n.n.K.~.~.K._.^.s.l.0.8.x.h.0.{ 0.4.1.( ( P i F.= @.u.k.0 e.",
"mXcX2X2XX ` VX6 +.v.H.p.G. XL.XX|.|.}.).'._.).).~.l._.l.m.j.Z.m.m.n.v.~.q.n.<Xn.O._.} 8.l.i.3.B.b.h.g.0.,.U ^ J 7 |.M R `.k.4 N.",
"xXcXrX,X@ W iX6 ` d.E ! H.].<XXX,X_.{.).}.)._.).m.j.b.m.m.b.j.j.j.b.x.v.J q.n.0.8.c.0.0.c.0.B.x.V.h.1.3.( >.U p K G.& A { k.v N.",
"8XdXtX>X@ C iX@ [ '.'.p.L.'.|.;X;X}.}.{.).K._.m.b.b.b.m.m.j.j.j.V.i.l.l.] Y { u.n.h.8.8.l.h.x.B.h.,.2.2.>.U >.u 9 p.: A J g.4 N.",
"=X6X2X>XX C qX$ z.G.L.r *.f.9.{.'.{.}.~.}.v.n.m.m.i.b.k.j.r.r.r.i.j.0.u._ 8.u.c.8.u.h.{ y.x.b.0.1.0.7.4.7.~ V.c ; J.S $.` k.0 N.",
"Q.I.&X#XX W iX% J.).f. Xf.G.;X;XG.L.L.v.a.K.v.x.m.j.m.y.j.j.j.i.h.h.0.8.y.' 2.x.h.0.8.2.3.4.h.j.7.x.,.2.k.U l P $ @.: #._ t 4 6.",
"@X@X[.].X ! ` # t.).Q P.H.H.}.<X<X{.K.K.v.v.l.i.j.m.i.{ j.C.k.j.g.y./ h.h.' { b.x.3.' 2.' 0.4.3.h.B.7.,.Z.C.4.^ 9.o.w p.n./ 2 ;.",
"$X$XU.(.X K qX+ O.@.f.d.M.(.<X5X[.K.*.v..Xn.l.l.j.j.y.j.k.j.g.r.0.4./ y.0.3.7.b.x.( ( ' ' / 1.4.k.' g./ 4.U n B.z.O.- F.l.k.4 N.",
"8X$X@X X  W qX+ [ O.@.#.@.M.G.}.[.| ).t.}._.i.l.j.b.j.`.j.i.k.{ 4.5.1.4.0.1.0.0.0.^ 3.L ^ / g.4.g.5./ / b ~ <.' 6 P.= E Y 1.4 -.",
"&X1X@XL.  C oXX z.p.o.Z M.,X).,X'.t.~.).OXt.OXV.j.C.b.V.i.i.j.*.1.5./ r.5.5.' 4.g.x ^ ( 4.1.,./ 5./ { ,.g.l y z P w.w d._ <.2 -.",
"gX3X$.#XX _ {.@ i t.! Q a.,X*.` M.}.m.OX*.s.j.x.i.m.j.r.k.i.y.i.4.4.1./ 1.1.1.0.5./ ' ( L / ~ ~ ( ~ / 1.x l l p s |.* o.^ r.o -.",
"pX1XR.J.X I qX+ } u.| c.@.o.! O.[ @.@.s.t._.i.x.x.b.y.y.r.k.j.r.5.5.r.( / / <./ / ^ ' ^ n j.L 3.{ r./ ~ b U ,.z W '., L.L m 4 -.",
"6X>Xa.W X K (.  # a ~.+.Z R F.z.K.p.[ ).}.i.y.3.i.g.j.r.g.C.g.r.r.g.{ r./ ~ ,./ ^ / t 4.B.3.0.j.f x / 1.t c c d R @., p.z <.4 :.",
"&X%Xz.O.X C _ X P y.8.` #.! 9.O.R Y ) Y { x { ' r.r.5.1.<.<.r.r./ / 5./ / 1.1.^ U ~ L U +X+XV.y.( c c c b / g.f K d.* f.U v 2 ;.",
"H.H.` a.X 9 ` X u 2.c.s.R o.` J Y q f T { ^ i.0.5.<.5.eXr.<.<./ 3./ / g.1.5.^ / ~ L l x./.B.3./ l / t 3 n l 5.1._ U.: E ) 7.2 ;.",
"S.d.p.+.X e F.X P h.u.} O.o.C L Y Y m._ k.h.' ,.{ 1.r./ { m m *.r.( k.{ 1.5.( ~ l l c g.5.7.k./ k l b y y m ~ p 2.X.* I ] U o -.",
"I.A.{.` . e 9.X P h.} z.K.! f ' d z _ T /.0.,.U ~ 1.r.m Z.x 0 ( r.{ ( r.,.x m l 7.y x b ( C.7.k <.r.m l c c t x B w.& (.C >.2 -.",
"D.D.*.t.  i w.  s ] { O.O.` u ) j.e T _ 3.2.0.x x 1.( x k x / x y.r./ m ^ c x y l b / 1.x 5.( k 5 k b y y g.y f 9 O.* w.P 4.o g ",
"I.H.Q z.. K p.  6 } ! W o.o.C s i.J J Y ^ ] U L f t T c f f x { T ^ x T z L x ~ x ^ ( c / l x y y t y y y 3 3 3 7 w.= A.C n o j ",
"F.Y.; X.O & I   J ` Q R ..F R R K C i B W ) C Y q.,.9 C a a s C Z Z i i i f [ T 6 K.} q d u s p 3 8 8 3 P y p 7 9 I & -XB P X 0 ",
"%.Y.& I O 9 A . q e i Z F V Z q C B 9 7 P 7 C C P a 8 7 a s a s $ i q ; r f Z R Y K Y d z q $ 6 3 # 7 3 7 n % 7 C ! = (.9 P o j ",
"D.=.%.... > #.w [ O.W r X.9.8.eX,.U 2.' ^ 1.0.,.) 8 p ( U 2.2.) f { ^ Y T p { { 3./ 5.,./ / 4./ 2.q.) 2.) P ,.2.) # @ w.7 7 X y ",
"D.Q.U.-X$X> S   e # ;   O # $ x % # X # % % 3 3 3 3 7 8 d 9 ) h.T f _ J f $ u c z P c z c n b L c z a 9 o p 6 8 u @ & B O + o 0 ",
"D N  .X.@ * A.#.z.n.t.*.].H.K.{.^.|.'.|.J.^.L.c.w.w.A.F.f.@.A. .C i B C K i C q C e 7 # # # X 3 9 3 6 3 6 3 3 3 3 % P 9 9 8 2 8 ",
"E I I W o.O A r [ } ` @.U.f.a.t.O.B R i @.M K J.K I F.X.E w w.B B Z X.Z * K ! R C I Z C C X.] 2.4.q.2.9 7 P c 8 8 3 a 9 z y n 0 ",
" .I I I o.  i ; [ Y | @.+.q.4.h.) ) ) 2.P d P q.] c.z.O.2.s P C 7 d ] } d 3.q.d L P y p 7 n q.7.) U ) 8 8 n c j 8 6 P a n c b 0 ",
" .& ! O.r + & * # 3 3 s $ 3 3 y 3 t 7.n y 3 8 p U t t a a d P 6 % 3 T ^ ^ { 3.y.^ ^ ' 1.) 0.Z.x.k.q.q.c.q.0.U n 8 ( n 9 ,.>.j j "
};
