/* XPM */
static char *xpm_[] = {
/* columns rows colors chars-per-pixel */
"64 64 203 2 ",
"   c #0B0B06",
".  c #080805",
"X  c #0C110E",
"o  c #13110C",
"O  c #16130B",
"+  c #0D1311",
"@  c #141513",
"#  c #191611",
"$  c #151B16",
"%  c #1A1B16",
"&  c #1C1D1A",
"*  c #121C1C",
"=  c #120E07",
"-  c #221D17",
";  c #1D211C",
":  c #22231E",
">  c #2C261E",
",  c #1E2321",
"<  c #1F2928",
"1  c #252522",
"2  c #282622",
"3  c #252924",
"4  c #2B2A26",
"5  c #242B2B",
"6  c #2B2D2A",
"7  c #2B2728",
"8  c #312D29",
"9  c #302C23",
"0  c #2D312C",
"q  c #32322D",
"w  c #343229",
"e  c #2D3332",
"r  c #343633",
"t  c #383732",
"y  c #373934",
"u  c #3A3B35",
"i  c #363B3A",
"p  c #3C3D3A",
"a  c #413E37",
"s  c #3C403D",
"d  c #42423D",
"f  c #4A453E",
"g  c #3D4342",
"h  c #3F4947",
"j  c #434542",
"k  c #494642",
"l  c #454946",
"z  c #4A4B46",
"x  c #454C4A",
"c  c #4B4D4A",
"v  c #524E49",
"b  c #514C46",
"n  c #47524E",
"m  c #4D514D",
"M  c #53524D",
"N  c #59524C",
"B  c #4D5352",
"V  c #4D5754",
"C  c #535553",
"Z  c #535955",
"A  c #5B5A55",
"S  c #555B5A",
"D  c #5B5D5B",
"F  c #565756",
"G  c #4E4F50",
"H  c #615E5A",
"J  c #625E55",
"K  c #57605E",
"L  c #5C615D",
"P  c #63625D",
"I  c #69645B",
"U  c #5C6362",
"Y  c #5C6766",
"T  c #626563",
"R  c #686662",
"E  c #646A65",
"W  c #6A6A66",
"Q  c #646C6A",
"!  c #6A6D6B",
"~  c #636768",
"^  c #726F69",
"/  c #66706D",
"(  c #6C716D",
")  c #73736D",
"_  c #79766F",
"`  c #646E70",
"'  c #6A6E70",
"]  c #657272",
"[  c #6C7473",
"{  c #6E7876",
"}  c #6C7678",
"|  c #6E7A79",
" . c #727673",
".. c #737A75",
"X. c #7A7B75",
"o. c #737C7B",
"O. c #7A7D7B",
"+. c #797572",
"@. c #817D76",
"#. c #75817E",
"$. c #7B827D",
"%. c #83847D",
"&. c #86857B",
"*. c #767E80",
"=. c #817F80",
"-. c #768382",
";. c #7B8483",
":. c #7D8986",
">. c #7C8789",
",. c #7D8B8A",
"<. c #7D908C",
"1. c #838582",
"2. c #848985",
"3. c #8B8B85",
"4. c #838D8B",
"5. c #8A8D8B",
"6. c #878684",
"7. c #918E88",
"8. c #85918D",
"9. c #8B928D",
"0. c #92938D",
"q. c #9E978F",
"w. c #859392",
"e. c #8B9592",
"r. c #8D9995",
"t. c #8D9A99",
"y. c #8A9898",
"u. c #939692",
"i. c #939A95",
"p. c #9A9C95",
"a. c #939D9A",
"s. c #9B9E9A",
"d. c #999693",
"f. c #888D90",
"g. c #A19D98",
"h. c #95A19D",
"j. c #9BA29D",
"k. c #A3A39D",
"l. c #A9A69E",
"z. c #94A2A2",
"x. c #9CA5A2",
"c. c #9DA9A5",
"v. c #9EAAA9",
"b. c #A2A6A2",
"n. c #A3AAA5",
"m. c #AAABA4",
"M. c #A4ADAA",
"N. c #ABAEAA",
"B. c #AAA7A2",
"V. c #A6B0AD",
"C. c #ACB2AD",
"Z. c #B2B3AD",
"A. c #A6B2B1",
"S. c #ABB5B2",
"D. c #AEB9B5",
"F. c #AEBAB8",
"G. c #B3B6B1",
"H. c #B4BAB4",
"J. c #BBBBB5",
"K. c #B4BDBA",
"L. c #BBBEB9",
"P. c #B8B7B2",
"I. c #ACAFAD",
"U. c #B6C1BD",
"Y. c #BCC2BD",
"T. c #C2C0B7",
"R. c #C2C3BD",
"E. c #C9C8BE",
"W. c #BDC5C2",
"Q. c #B8C3C2",
"!. c #C2C6C1",
"~. c #C4CAC4",
"^. c #CACBC5",
"/. c #C5CCC9",
"(. c #CCCEC9",
"). c #C8C7C3",
"_. c #D0CEC4",
"`. c #CCD2CC",
"'. c #C6D0CA",
"]. c #D3D4CD",
"[. c #D5D4C9",
"{. c #CED7D1",
"}. c #D3D6D1",
"|. c #D5DAD3",
" X c #DBDCD5",
".X c #DCDED9",
"XX c #D6D7D6",
"oX c #E1DEDA",
"OX c #DDE2DB",
"+X c #E3E4DD",
"@X c #E6E5DB",
"#X c #DDE3E3",
"$X c #E3E6E1",
"%X c #E5EAE3",
"&X c #EBEBE4",
"*X c #E5EBEB",
"=X c #ECEEEC",
"-X c #E8E7E2",
";X c #EDF1EB",
":X c #F3F4ED",
">X c #F6F6ED",
",X c #ECF2F3",
"<X c #F9FAF3",
/* pixels */
"T.@X>X9 T.[.@X&X@X&X@X@X>X@XoX;X;X&XoX[.oX-X$X-X$X-X:X<X&X:X<X>X&X>X:X>X<X>X:X>X:X:X:X<X<X<X@.:X:X:X<X:X>X>X@X<X>X>X>X>XOX&X;Xm ",
"I @.l.= = k.7.g.7.l.k.m.N.7.N.k.p.q.3.Z.g.B.B.T.).R.].!.J.J.m.E.g.Z._.J.E.|.|.(.~.+X+X XXXoXo ].XX X].oX@XOX>X X[.@X[.; _.k.W.:X",
"b f d.# k._ 7.3.d.q.g.d.6.3.d.q.4 p.: 7.0.k.B.B.B.N.Z.N.C.0.d.Z.7.- l.J.E.E.`.(.].~.).].Z.%.o # _.(.T.oX_.@X@X@X[.E.k.E.^.5.=X=X",
"N @.w # O = - 2 t t z p z w : u f t 4 : 8 u 2 r q r : 2 w : 4 q > w 9 8 s 3 s z y q 2 & - 8   o % 8 z M L f z f s w f L C L.Q s.",
"f # 6.o P k D X.&.E m.j.9.$.9.N.^ &.# &.&.C.Z.C.L.c ) 0.R.m.0.q k.^ $.Y.|.OXOXOXZ.^.^.&.) ).X.u.0.XXZ.l.3.0.Z.^.N.=Xs.}.2.}.. /.",
"b N.B.. M ! k.k.9.j.&.j.j.h.j.0.j.8.h.i.m.E.Y.Y.(.s.i.k.^.R.J.&.$.&.E.E.|.+X|.%X&X+XJ.3.W %.) ).oX].+Xl.l.<X|.>X&X<XI.a.o.=X,XXX",
"J m.k.o +.j.d.b.j.i.j.n.9.h.j.j.n.$.j.h.V.C.Y.U.F Y.Y.R...m.C.N.7._ U.|.|.%XOX@X.X;X X).3.%.&.@XoX).Z.M &X:X:X>XXX,X*XK.W.,XXX*X",
"k B.d.o R 0.k.e.E ; 8.9.n.4.h.j.m.j.i.C.n.U.C.V.H.R.R.K.m.R.`.^.l.) m.~.OXOXOXOX.X+X-X+X+X&XY.OX].oX[.).@X&X%X&X$X%X#XXXK.,X*X#X",
"k d.s.o 1.5.u.9.2.%.:.j.h.V.h.V.D.i.M.m.C.V.D.U.U.Y.Y.H.C.|.Y.].Z.k.Y.Y.{.OXOX%X{.OX( OXOX|.G.|.N.j. XOX|.OX;XOX=X=X#X`.K.*X#X*X",
"& s.s.X O.5.C  .8.9.x.9.M.x.V.c.M.e.h.c.j.D.j.D.Y.U.U.~.G.H.`./.m.U.j.Y.|.OX{.OXOXn _ _ &.Z.m.(.@X|.[.OXOX+X+XOX%X%XOX`.e.%X.X=X",
"T g.0.%  .1.5.X.i.$.r.c.h.c.h.M.~ e.x.M.M.V.U.D.D.'.~.K. .~.Y./.^.OXY._.`.|.@X'.N.$.&.&.X.6.P (.|.[.@X;X_ &XOX;X;X%X|./.Z Q.XX#X",
"g g.p.1 p R 2.~ L 2.9.e E 4.x.h.a.a.i.M.V.S.S.U.D.H.W.W.Y.Y.H.G.l.C.E.'.{.|.Y.{.R. X$...&.&.G.R.(.[.|.~.;X+X<Xk.$XOX|.~.L .X.X$X",
"j B.0.1 M 4 2.$.3.2.L S [ E / L j.i.[ 4.$.V.M.D.V.U.U.U.W.`./.U.S.U.U.'.'.OXOX`.Y.Z.s.&.Z.^.J.Y.|.OXOXOXOX+XOXE.|.Y.|.Z.s ]. X;X",
"c d.d.7 v C 2.5.$.$. .l L $.Q 9.i.$.Z a.V.D.U.D.c.V.n.D.U.D.{.U.Y.~.Y.'.'.`.|.%.&.|.R.).].G.4.H.~.R.U.U.@X`.&. .[.@XZ.j.P OX~.+X",
"u d.5.: P u X.1.u.X.E P ! O.9.s.j.4.h.j.V.V.V.D.U.j.j.j.C.U.U.W.Y.C.~.M.{.'.j.i.j.0.R ].].}.p.H.Y.R.Y.[.|.N.&.E.^. Xk.3.P ^.[.&X",
"r u.X.% D c ! r A 6 F P X.j.2.j.i.9.i.c.M.j.U.U.M.U.$.r.a.V.H.Q.Y.'.`.'.'.'.C.C.C._ %.( ].R.u.R.E.n.~.[.@X`.`.|.E.N.Y.7.v T.^. X",
"p 7. .O j @.4 R k W %.$.&.$.h.j.u. .9.h.j.c.U.S.h /.4.s.b.M.N.L.Y.E.Y.E.Y.E Y.U.i.$.$.%.^.R.l.k.Z.9.I &.M E.[._.E.p.T.&.f T.E.[.",
"8 &.W   W X.! R f A $.&.7.i.e.i.$.8.2.9.j.i.e.h.9.3 m x.N.C.R.C.U.U.U.U.E.U.U.E.R.~._.l.Y.n.7.m.~.k.C.3.&.Y.R.m.l.q.&.) J E.E.[.",
"8 X.&.% A X.) ) P R I 9.9.9.h.8...( ..u.i.j.Y.S.C.r.2.g n.5.i.n.Z.l.9.p.C.U.Y.Y.Y.R.R.E.m.^.p.Z.k.Z.C.U.k.&.l.Y.[.m.0.$.&.E.E.E.",
"M ) X.= l D O.W 6.X.^ X.2.8...8.! ! %.j.9.j.j.j.C.x.M.n.m.H.N.C.Z.9.I $.Z.Y.E.U.R.'.U.^.^.Y.m.Y.C.m.H.l.T.0.P.Y.U.p.&.N &.E.[.E.",
"v # ) . . r ~ ( 1.$.X.%.;.O.;.}  . .e.j.9.9.e.j.h.M.j.M.N.C.n.b.m.l.k.Z.m.j.m.n.G.Z.H.H.C.J.p.J.H.Z.j.j.l.C.Y.R.Z.m.I d ^ m.&.E.",
"I C l @ X.[ [ [ Z Q Q ( ! ' *.S | O.Q V E 9./ #.2...;.Q 2.2.s.l ( $.i.$.&.$.#.0.h.j.i.i.C.C.P u.3.i.m.2.$.( A L J M I J d # w J ",
"8 +.H + 2.h ] / $.U.4.2.a. .*.'  .' ; $.K { 8.$.8.r.8.;.c.a.S 2.W ) $.$.7.&.Z.U.L Y.0.&.& Q $.N.G.OXW.D.E.Y.E.C.C.&.Z f J $.> T.",
"b +.2.@ B [ 8.;.:.2.i.5.e.i.f.a.}  .o.;.Y 8.V.S.A.M.V.Q a.M.x.( N N $.p.k.Z.U.Y.'.Y.Y.C.F M.n.U.Y.`.~.W.|.Y.k.G.U.i.I &.N U.E.E.",
"b 7.=.@ Y 4.,.,.:.e.e.$.f.5.B S S i , Q.*.z.v.v.A.A.M.x.x.n.x.' E I $.&.0.Z.Z.E.W.W.~.Q.S.b.x.G./.W.'.W./.H.A 9.E.U.&.j.M E.E.Y.",
"8 6.=.% ' 4.,.>.4.4.a.r.*.2.S ` S *.} *.y.t.f.` A.M.a.a.z.M.c.o.L Z ) 8.U.U.U.C.K.U.H.W.H.~.Y.K.H.W.W.U.Y.j.j.9.Z.Y.p.^ Z E.E.|.",
"7 5.=., } *.*.>.#.o.4.9.2.*.S o.*.U e.4.w.z.y.*.z.A.M.x.e.2.j.f.L L C.C.c.C.U.U.F.W.A.F.W.o.r.n.D.Q.U.H.V.D.4.9.p.m.U.^ f T.E.|.",
"7 6.=.& ' o.o.| Z $.#.$.w.>.,.o.>.y.>.f.y.f.>.y.t.v.M.x.x.f.b.f.&.r.c.V.V.C.C.C.U.F.U.K.A.M.e.x.x.S.C./.Y.V.9.i.U.m.U.l.m Y.U.OX",
"p 6.5.@ ~ ;.2.| K d  .2.;.4.-.w.>.w.w.,.<.,.<.y.4.a.a.z.A.M.I.4.r.h.h.z.U.c.U.U.Q.A.W.W.F.V.z.x.D.D.z.Q.K U.S.D.Y.K.Y.%.$.Y.U.E.",
"7 T O., o.f.4.*.E m [ 2.8.| 4.-.,.w.*.w.w.Y w.*.,.a.a.c.5.e.s.i.h.t.v.c.c.U.A.A.V.Q.K.A.V.x.V.v.V.U.U.F.S.S.A.D.H.Y.H.k.: Y.E.[.",
"C @.*., | O.2.f.4. .2.2.:.#.,.,.,.>.-.<.,.*.y.<.t.4.f.5.;.2.i.a.t.z.y.z.z.c.c.A.M.A.A.F.v.V z.v.A.A.D.Q.A.< M.M.H.C.U.i.( H.G.'.",
"t @.=.& o.o.;.o.4.2.1...0 ;.4.8.f.f.>.<.z.y.y.y.a.` | o.e.t.M.x.z.n #.-.y.z.A.U.M.v.F.A.M.t.#.V.A.V.Q.D.A.U.S.C.S.M.C.$.M Z.Z.[.",
"q o...* F } o.B *.>.f.;.f.>.y.t.;.e.f.f.z.e.y.a.t.<.] *.,.y.t.t.z.h.r.8.a.h.v.h.a.a.S.n.C.x.5.c.S.S.Q.F.M.v.v.v.V.A.F.9.L n.H.}.",
"l O...@ i ;.' Y *.*.>.w.f.4.>.4.;.a.} >.4.e.e.y.t.w.>.<.y.z.y.r.w.W.#.x.h.v.j.h.;.o.;.N.x.s.! e.;.W.A.v.M.A.M.z.M.v.V.a.s H.G.XX",
"s o.O.@ 7 Y L o.V *.*.>.-.w.4.| ~ 4.4.*.e.f.c.t.t.w.w.w.w.t.w.w.c.<.h.c.h.c.n.n.e.e.r.x.x.c.S e.~ } a.v.c.x.r.x.V.A.m.j.m C.L.].",
"r O. .@ ~ ~ ' 2.4.K f.y.*.*.] Y x C V S Q e.;.w.t.w.y.y.w.t.t.t.c.v.c.z.h.h.v.a.X a.e.r.x.e.o.Q ~ *.6.4.o.h.x.v.A.D.n.i.[ b.G.^.",
"i ! ! , ~ T ;.~ } [ | [ o.[ o.U V ~ e | ;.w.w.<.w.w.y.y.y.w.t.<.c.z.h.r.t.w./ t.8.y.r.a.x.e.U j.f.2.u.2.t.a.x.M.M.b.j.5.R C.n.^.",
"q 6. .; F ~ E !  .O.o.[ ' | ;.[ U U Y } 4.>.4.>.<.y.w.w.w.,.w.#.<.h.r.r.r.r.w.8.,./ a.r.h.4. .z.t.b.f.f.5.a.i.s.b.s.p.5.A B.Z.R.",
"7 X.T % z W W ) ~ [ S Y ! ' *.*. .' ~ ` ;.4.e.,.y.y.y.4.8.8.8.:.$.t.<.r.t.9.w.w.5.2.a.f.s.4.u.*.a.g.5.F C ~ B p.k.j.d.%.C p.Z.P.",
"7 ^ H % c C R W  .g B U T *.*.o.| ' C o.5.;.4.4.5.4.w.-.4.4.2.8.<.8.t.8.r.h.r.9.w.w.2.u.a.2.o.6.f.s.5.d.D F D n.n.0.6.R f p.7.J.",
"r H H & d M F ! W j g g ~ O.}  .! F D ~ *.6.5.f.8.$.#.$.#.#.#.{ L #.$.e.2.8.r.e.;.4.$.9.2.! F  .6.9.3.9.i.I $.0.9.P L j.d ) 8 q.",
"8 k v 2 +.a G N F G F c l D F F C l G ' D ~ ' 1.( $.E L Z L L y K / #.Y  .[ Z a.E K ~ D U @ @ D C r ( X.C c ( L j &.c I P N ) I ",
"d.6.H o d.W +.H d.6.b.b.N.s.u.f.5.6.s.6.u.I.N.5.9.h.9.&.$.2.3.L 8.$.8.$.o.O.8...4.:.2.5.2.5.i O.5.i.i.j.e.) 0.&.) u.R s 0.X.% m.",
"a A 7.. t F W O.O.O.u.2.=.*.=.} k =.F *. .i *.2.#.E $.$.$./ %.8.9.z 9.2.e.4.4.8.9.e.;.o.5.j j ! 5.4.u.2.u.$ i.h.1 u.L R n.W u.3.",
"4 % : o @ & : : @ e 5 r < e i g p g Z L F C f.o.E Z ( K / %.9.C X.z e ..O.#.K / B :.2.#.Z 4.l C L ( 3 C s s s n s Z u d ^ ) k.j.",
"6 =  .X @ q ~ U K Q Y o.o.Q Y U g g 5 l x o.1.e.$.#.$.$.9.$.9.L L L ~ 4.8.2.4.8.r.8.t.r.2.U L o.9.h.M.[ m 0 K z ( E z ; $.u.3.^.",
"& o.C + F D O.~ U Y -.| -.[ | Y V S S ..2.8.r.e.8.e.9.i.h.$.#.K m L ..9.h.e.9.h.a.h.8.8.r.[ 9.w.4.h.r.M.Y L m K 2.j.%. .E k.j.(.",
"i X.! @ U ' | | [ Y :.;.:.| o.| #.V / / ;.:.;.2.E 8.9.8.$.#.K E S S [ ;.4.,.h.t.v.h.a.h.e.r...2.4.8.;.Q h.i.8.S.$.j.i.$.L j.j.|.",
"0 %.[ X ~ o.[ o.` Q *.} o.} ;.-.*.a.~ o.;.;.e.:.#.8.,.e.#.,.;.z.` K ] -.,.y.<.y.w.r.S.t.M.[ [ o.;.#.a.2.w.8.h.y.,.w.5.:.B s.M.(.",
"i ( Q ; U Y } } } ] } >.>.4.o.*.4.} Q *.} >.z.>.;.4.8.8.4.8.8.:.-.>.] ` -.,.<.y.y.w.8.h.y.e.[ *.{ a.;.;.,.w.t.v.y.t.w.| V a.i.`.",
"s  . .X D | g } ` | | *.>.o.Y x *.g U | 4.[ } ;.#.,.w.w.#.w.y.,.] ` ] } -.-.>.-.<.8.#.9.4.*.! ;.-.o.| Y w.w.w.y.w.,.w.~ F u.i.XX",
"p ) R $ ' } 4.B [ o.} *.>.} [ ] n n U *.;.*.o.:.-.w.,.w.< -.-.] Y *.} ] -.| ;.>.#.n Y ;.;.5.U ;.2.,.| 4.y.w.y.<.w.,.,.| x z.a.{.",
"w $. .@ x L  .' S K x e 7 S L } Y g *.` Y -.,.:.:.-.<.-.-.,.} y.] ] *.] >.o.[ x x Q Z 0 S ( Q 4.;.,.#.4.8.:.<.:.8.,.-.Q x i.x./.",
"p W  .X c j ! ~ ' K i S S i L ` ` Y * Y ] Y ] ,.#.| <.-.<.t.,.-.*.-.*.] Q.D ` c Z V B L i [ o.;.8.:.:.:.| w.-.8.8.:.[ V V e.x.^.",
"t ) A @ y j O.' ' g g g G G ~ } Y V * U Y | :.| #.] | Y #.#.,.-.*.h >.V >.i G ' i T ;.5.e.$...:.:.8.:.| :.{ #.<.8.;.Q L j 9.u.^.",
": X.D : l j F & ' D h j g C *.L } S V U Y | o.#.] -.] / | -.-.-.-.` *.<.f.L [ D 2.g 5.5.8.#.;.:.;.:.U L 4.;.g o.$.V  .x j  .d.).",
"2 P W % u H c v g l F l G F ' } Q F n U ` ] -.-.o.w.+ | [ Y [ *.-.>.} -.:.#.V m L :.%.:.4./ E | 2.o.O.' ' ~ } D 1.E P c d s.6.J.",
"7 W P @ k W l G c G T  .F U ~ ' B Y Q B S Y o.| :.V ] [ Q ~ o.` *.-.| ` Y Y Z E T  .$.9.8.;.n | | F c l F G s k x c H a A _ &.J.",
"7 R R & p v N M a k G D ~ T U ' D S B L U [ E Q Q Q ~ x ;.Q ' ! Y } ` ] | ........$.$. .2./ n ( ! ! ! D i i k , P A u t a I _ T.",
"8 F T & & a j C u p s N F ~ U S C L F F S n ~ Q Y Q Q L U ~ U F Y K Y K K / Q $.) / ../ Q / s :.F F D v s C D H C N k B.a N > q.",
"4 v k % b 7 k a d k k c k j l i p T & i j s n m l j m m j z j i j s s z C n C n m m C V x g + l j l p c j c C d b k a N ^ J I E.",
"t W H 2 W R 5.k N P ~ ~ *.F F G D M ! F C L D A ! % D ; c F R P X.V P L  .( / P L e Q W ! U 1 5. . .....! @ X.R H ^ ^ J ^ J @.@.",
"d 6 r : 8 F F N T P G U F D ~ U o M k c P P P L ) P ! ( H H C a m z L W ( L ) E ! [  . .U W . . U [ !  ... .+.+.@.^ J N J f I &.",
"1 q q @ p t k 8 : d s i i 5 5 7 r 1 4 q q ; 2 q ; q 6 4 2 1 2 2 r 7 4 0 X ; $ ; @ ; & & % 1 @ 1 6 , e 0 % & # % = # O = . = O a "
};
