/* XPM */
static char *xpm_[] = {
/* columns rows colors chars-per-pixel */
"64 64 161 2 ",
"   c #019FFF",
".  c #00A6F7",
"X  c #0AAFF7",
"o  c #01A5FE",
"O  c #02ABFD",
"+  c #0BADFD",
"@  c #14AFF5",
"#  c #1BAFF6",
"$  c #13AEFB",
"%  c #18ADFB",
"&  c #05B1FA",
"*  c #0DB1FD",
"=  c #10B5F7",
"-  c #1BB2F5",
";  c #14B2FD",
":  c #1CB4FD",
">  c #14BAFF",
",  c #1CB9FF",
"<  c #23AFF4",
"1  c #25B3F6",
"2  c #2DB4F5",
"3  c #23B5FD",
"4  c #2BB6FC",
"5  c #24B9FF",
"6  c #2BBAFE",
"7  c #33B5F5",
"8  c #3BB5F2",
"9  c #37BAF7",
"0  c #3DBAF6",
"q  c #31B7FA",
"w  c #34BBFD",
"e  c #3BBDFD",
"r  c #44BAF6",
"t  c #4CBDF6",
"y  c #43BEFC",
"u  c #4BBEFC",
"i  c #55BEF6",
"p  c #5BBEF4",
"a  c #51BFFA",
"s  c #34C1FF",
"d  c #3CC2FF",
"f  c #44C1FE",
"g  c #4CC2FE",
"h  c #53C1F6",
"j  c #5CC3F5",
"k  c #53C4FD",
"l  c #5BC5FD",
"z  c #56CAFF",
"x  c #5CCAFF",
"c  c #5ED2FF",
"v  c #66C3EE",
"b  c #65C4F6",
"n  c #6CC6F4",
"m  c #6DC8F4",
"M  c #63C6FB",
"N  c #6AC7F9",
"B  c #64CBFE",
"V  c #6CCBFD",
"C  c #73C7F4",
"Z  c #74CAF6",
"A  c #7BCBF5",
"S  c #74CCFC",
"D  c #7BCDFC",
"F  c #63D2FF",
"G  c #6CD2FF",
"H  c #74D1FF",
"J  c #7CD1FE",
"K  c #79D9FF",
"L  c #83CEF6",
"P  c #8BCEF3",
"I  c #82CFFA",
"U  c #94CEF4",
"Y  c #90CFF8",
"T  c #86D0F6",
"R  c #8CD2F6",
"E  c #83D2FC",
"W  c #8BD4FB",
"Q  c #85D8FF",
"!  c #8CD8FE",
"~  c #93D4F5",
"^  c #9BD5F5",
"/  c #97D8F6",
"(  c #9BD9F7",
")  c #93D5FA",
"_  c #9BD6FA",
"`  c #94D9FC",
"'  c #9BDAFB",
"]  c #BADCEE",
"[  c #A2D7F5",
"{  c #A3DAF6",
"}  c #ABDCF4",
"|  c #A3D6FA",
" . c #A3DBFA",
".. c #ABDDFA",
"X. c #B3DEF5",
"o. c #B9DFF4",
"O. c #BADFF3",
"+. c #B7DFF8",
"@. c #B3DEFA",
"#. c #B9DEF8",
"$. c #A7E0FE",
"%. c #AEE0FB",
"&. c #A8E1FE",
"*. c #ABE0FF",
"=. c #AFE2FD",
"-. c #ACE0FC",
";. c #B7E0F4",
":. c #B6E0F6",
">. c #B6E0F5",
",. c #BAE0F3",
"<. c #B8E1F5",
"1. c #BAE0F5",
"2. c #B8E1F7",
"3. c #BBE1F6",
"4. c #BDE2F5",
"5. c #BEE3F5",
"6. c #BCE0F6",
"7. c #BEE3F6",
"8. c #BCE1F5",
"9. c #B2E1FB",
"0. c #B4E0F9",
"q. c #B6E0F9",
"w. c #B1E0FC",
"e. c #B4E2FC",
"r. c #B6E5FF",
"t. c #B4E0FA",
"y. c #B8E0F9",
"u. c #B9E2F8",
"i. c #B9E1FA",
"p. c #BDE1F9",
"a. c #BFE3F9",
"s. c #B8E4FD",
"d. c #B8E7FF",
"f. c #BEE6FF",
"g. c #BBE2F9",
"h. c #BDE9FF",
"j. c #C1E4F7",
"k. c #C1E6F6",
"l. c #C2E7F7",
"z. c #C4E3F4",
"x. c #C9E5F5",
"c. c #C1E4F8",
"v. c #C3E6FA",
"b. c #C7E6FA",
"n. c #C4E4F8",
"m. c #C9E6F8",
"M. c #C7EBF9",
"N. c #C6EAFA",
"B. c #C0EDFF",
"V. c #C9EAF9",
"C. c #C8E9FA",
"Z. c #C9E8FA",
"A. c #CCEEFA",
"S. c #CDEFFB",
"D. c #CEEBFD",
"F. c #CAEEFC",
"G. c #CBECFF",
"H. c #C8EEFF",
"J. c #CDEDFC",
"K. c #CFECFC",
"L. c #D0EDFD",
/* pixels */
"2.+.O.,.5.k.N.F.S.S.K.K.K.D.D.G.G.B.h.d.r.-.-.&.&.$.' $.' ( ( ( ( ' / ` ! A E H K B l B x x l l x B B x x k g f d s 6 , + . . . ",
"q.+.+.,.5.5.k.N.N.V.V.V.V.Z.b.v.f.i.t.w..... . . .$.' ( ' ( ' ( ' ' ` ` ! K H H G j l l k k h h k k z z z g f w 6 5 : + X . . . ",
"q.>.X.;.2.,.5.k.k.j.j.j.v.c.p.#.+......... .[ ' ' ' ' ' ' / ' ' ' ' ` ! J J V B B h h k k h h g h r u u f f 2 2 5 : + X . . . . ",
">.} X.X.:.X.o.2.5.2.2.2.y.q.@.} ..} .. . .[ _ _ ' ' ' ' ` / ' ` ` ! ! K S H M j z g f g g g g k f 0 f 9 9 q 1 6 , > + O o o o o ",
"..} } >.>.>.:.:.#.+.t.w.9.-..... .[ [ [  ._ ) _ ` ` ` ` ` ~ ` ! ! E Q S N G k k g e y f f f g g f 9 d s 2 6 - 5 ; + O . o o o o ",
"} ..} >.%.%.+.q.+.@.@.-..... . .| _ _ _ ' _ ) ) ` ` ) ! ! W R E W D K N x x g f d 9 w e e d f f d s s w 6 s - ; + + O o o o o   ",
"} } } >.X.X.:.q.@.@....... .' _ _ _ _ ' _ ` ) ) W W W ! W W T L E S H M z z f d d q w 9 w 9 e f 9 d s s s 6 = X * + O o o o     ",
"} } } } } X.X.q.@.@..... .' ` ) _ ) ) ) ) ) ) ) W W E W Q Q E A D S N j k g d d s 6 6 4 q q 9 d 2 d d s 5 , , * & O o o o       ",
"} } } } } @.+.+.w.....[ _ _ ` ` ) ) ) ) ) ) ) W W T E W E E E D D S V l h f d s s 1 1 6 6 2 q s 2 e e q 3 : ; $ + O O o o o     ",
"} } } } X.X.@.@.@...| | _ ' ` ) ` ) ) ) ' ` W W W I I W E E D J D S V l h d s s s 1 1 6 6 2 6 s 2 w e 6 3 : ; + * O O o o o o   ",
"} [ } } ..9.@.} .. .| ^ _ ' ) ) ` ) W ) ) ) W P W I I E E I J E D S M k f d q s 6 5 1 6 6 1 1 6 < q w 6 3 % % + + O O o o o     ",
"} [ } ....%.%..... .^ _ _ ) ) ) ) ) W ) ) W W W T W W E E E I E J S b k f s q s 6 5 3 6 1 5 5 6 3 6 6 4 3 : % $ + O o O o . o   ",
"[ } | ......$.{  .( _ _ ~ ~ ) ) ) W ` ' ) R R W T W W W W E D E E S M k f 9 q 6 5 1 3 6 5 5 5 5 5 6 6 : % $ + o O O o o o o     ",
"[ | |  . . .( ( ( _ _ ) ~ ) ) ) ) ) ' ' ' R P P Y ) W W ) E D I J V M k f 9 q 1 3 3 3 3 5 5 , , , , > ; + + . . o o o o o     . ",
"_ | | | _ ( ` / / / ` ) ) ) ) Y ) ~ ) ' ' ~ P P W ` W W W Q A D S S B g d 9 6 6 6 6 5 3 , , ; = * * + + O O O O o o o o o   o o ",
"_ |  . .` / ~ / / / ) _ _ _ _ ) ` ~ ~ ` ' ) ~ ~ ~ ` W W W I A S N V B g 0 9 s 6 6 6 5 5 , : * X & & O . . o o O o o o o o o o o ",
"_ _ _ _ ` ) ~ R R W W R R / ' ' ` ` R / ' ' ) ~ _ _ W W W D D S N B x k f f d 6 6 5 , : ; * & O & O O O O o o o o o o o o . . O ",
"~ _ ) ) ) W W W R W R R R / ' ' ' ` / ` ` _ _ _ ' ' ) W E D S V B x x g f d w 4 3 , : = * + O O O & O O O o o o o o o o + O O O ",
") _ ) ) ! W W W R T R R R / ` ` / / ' ' ' ( _ _ ' ' ) W J C V M l k g u e q 4 3 : ; * + + O O O & O O . o o o O o o o o O . + O ",
") ~ ) ) W W W W W E E R ! ` ` ~ ~ / ( '  .' _ ' _ ) ) W E S N b i t r e 9 6 - : ; + + O O O O O O O O O o O O O + o o o . . + + ",
") ) ) W R W E T E E L W W ) W ) ~ / (  . .$.' ' ^ ) W W E S b p h t r e w 3 : ; X + + O O O O O O O O . O O O O + O + O + + $ ; ",
"W ) W W W E E T I I I W W W T P ~ / ( _ ' ' ' _ _ ` W W E S V j j g u e w 5 , ; + + O O O O O O O O O O O O O & O + + + + > : , ",
"W W W W E E J L I A I I T T P P P R ) ` ) ` _ / _ ` W Q J H V B x k f w 6 3 > * O O O O O O O O O O O . . O O O + + + ; ; : , , ",
"W W E E E E J D D I I I W I I T T R W W R R W R ) W E E S V G G F x g w 1 : = + + & O O O O O O & + O O . . O + * * > : , 5 3 3 ",
"I I I D E E J D D D D E I I I I A J Q Q I L L W T T I D C V V G F c z s 5 , : ; = > > & . O O O + * * + + + + * ; ; : : 3 3 4 w ",
"D D D D D J D D D D J E I I D I A J J J D D A L L L A C S H G B k g 9 2 1 - ; > > , , > ; * + + + * ; * + ; > : , 5 5 1 6 6 w s ",
"D D D D D S S J J J E Q E I D D S S S S Z D C A A A C C S V B l g 9 2 2 1 - - 5 , , s , : > : % % : : : , : 3 5 3 6 6 4 w w e d ",
"S S D S Z Z S S J J J E E I D D S S S S S S D J A D A C N b l h f 7 2 4 6 3 3 5 , 5 , , 3 5 3 5 5 5 5 3 3 1 3 4 4 6 w w e e e f ",
"S S S S S V S S J S J E E J A Z D S Z Z H J J E I D D S N M l u 9 q 2 1 5 5 3 3 6 6 1 1 6 6 6 6 6 5 5 6 4 4 4 w q e e e y e e 0 ",
"V S S S S S V S H S S J J D D Z Z Z Z D J E E E E D Z V V B l g w 6 5 3 3 5 6 1 6 6 s 6 w 6 6 6 5 5 4 4 4 q 9 e e y r e y y 0 r ",
"V S H K H S S S S S C H J D D D A A A A E E E E I D Z V B B k y w 6 5 3 3 5 6 6 6 6 w s w w 6 6 6 6 4 w w e e f g g u r g g g g ",
"N S K J H V S S S C C S D S D D Q Q Q E J E E A A S H V B k y e 6 5 3 : 1 3 5 6 s w w w w w w w 4 4 w d e y f g c z k g k x z z ",
"S S H J J S S S S D S S J E J D J D Z S D D D Z H S V x g r 9 w 6 6 1 3 1 6 6 6 w 6 w w s w w w s w s d e r g z x x x k j l B x ",
"S H H J J S D D D S Z S H S S S S S N C Z S S S S V l h u e w w w 6 6 5 6 6 6 6 w 6 w w w s w e d d d f f t g x x x l l B V V V ",
"H H J S S H J H S S S S S V V V V M b V N S S V B l k t y e w w 6 5 5 1 6 6 6 w 6 w w w e e d e d 9 e f g h h l B B N V H S S S ",
"H K J S S H H S S S S V b V V b M M M M V V V M l l u u e w w 6 5 3 3 3 3 6 6 6 w w w w w e d d d f f g g h l l G B G H J J D Z ",
"H K J S S H H G S S V M M B M l l l M B B M l l i g u y e w 6 5 5 5 : 3 3 5 6 6 w w w w e e d d f f g g k l B B b m H J Q Q W I ",
"S H S S S H S V G B l l l k k l z l l x l z k a u g y w 6 6 5 5 5 , : 3 3 3 6 6 w w w d e e y f y g g g l B B B v Z J E W W Y Y ",
"S S S H S V V V M l l l z h k k k k k z k k u g g f e w 6 6 3 3 ; ; ; , 5 3 5 6 w s e d f f y y f g u h l B G V m Z E E W ) _ U ",
"H V H H H V V M i l l k g k z z k k k g g u u y y e w 6 6 6 3 ; ; ; : , 5 3 4 6 w w e e d y y y g g k k x G G H v Z E W W _ _ ^ ",
"V H H H G N j j l l z a k k k g g g g u t u f e e w w 6 6 5 3 % - : ; , 3 3 6 6 w w e d e y f g g k k l B G H V m K Q W ` ' _ _ ",
"V G H G V M l j l x z a k k g g g g g f u y f e d w w 6 5 3 3 - ; - - : 3 5 6 6 w w e y e y y f y u a k x V V V m Z Q ! ~ ` ' _ ",
"V V V B M M M l l x l k z k k g g g f f f f d 9 e w 6 6 3 3 : ; : : : 3 3 5 6 q w w e d y y f f u g k z l V V V m Z E ! ` ) ` ` ",
"V V V N M M M B B B x x x z k g g f f f y f e w w w 6 3 1 3 : ; , : - 3 5 6 4 4 w w e e y y f f u k k l x V V S Z Z A ! ` ) W ) ",
"V V B B B B B B B B B B F x h g u f u y 9 e w w 6 6 6 3 3 3 : : 3 3 3 5 6 6 4 4 w w e e e y f f g g h l M V S S Z C A E ! W W W ",
"V B M M B V B V B B B x x x h h g f y e e w w w 4 4 3 3 : : 3 , 3 3 3 6 6 6 4 q e e e 9 e y f g g h k l V S S S E A C D Q Q Q E ",
"B M M M B V B M M B B x x x h h g f e 9 9 q 6 4 3 3 3 3 : : , 3 3 4 6 w 6 6 4 w w e e e y f f g k k j B V H D D Q D A A E E E D ",
"M l M B B B M l M B B j l x l g g f e q 4 w 4 3 3 3 5 3 , 3 3 3 6 6 6 w w w 9 w e e e r y f f g z x B V S S D E W E A D E E I A ",
"j l x x l l l M l l l l F l k g g e w q 6 3 3 5 : 3 5 , 3 3 4 6 6 s 6 s w e 9 y r r r u u f g k x G V H Z J E Q ! W A T ! ! E T ",
"j l x x x l z z l l l z x z k g y e q 4 4 3 3 , , 3 5 3 1 3 6 w 6 s 9 d 7 0 u k z k g g g u g k x G H K Z A T R ! ! T ! ` ) R R ",
"j l x x z k u r g z k l l l g g y w q 1 1 3 3 : 5 , 3 3 1 6 w d w 9 d f r t k c F x x z k k k k l V H J A T T ! ` ` R ` ` ` R R ",
"l x x x g y 8 8 u g k z k z a g e e 4 1 1 3 3 : 5 5 3 3 4 w s d e 9 f z g t x B F B B B B x l j j b S J E T R ' ' ' R ' ' ' ) / ",
"l x z k f 9 7 8 f f g z g k a u e q 6 < 3 3 : : 5 3 1 1 4 9 d f f 0 g c k h x B V V G V N b M b b N D E W R / _ _ ' ~ ' $. ._ ^ ",
"z z k f e 7 7 w f f g g u g u y e 6 4 3 3 : : , 5 3 1 4 q e f f k g g z k j b N H H S H V n V V S Z D I ) ~ _ (  . .^  .$.&. .^ ",
"g g f f w 2 7 9 f d g g u u u e w 4 3 3 : % : 3 5 5 5 q e e f g z k l k M b V C D D D J D A D D D A W W ` / $. .{ -.^ } ..%...} ",
"f e w w 9 2 q e f d g y y y y q 6 3 # : : % : 5 3 3 6 w d y g g x l B j V N Z D E I L E E L D I I E ) ~ _ [ -.{ } %.} } } >.} X.",
"d w w 6 4 q e e f f y y e e w q 3 3 : : : : , 3 3 4 w e f u g x B j M V S D E D W W W W W E I I W ` ' _ [ } X.} } >.X.X.:.2.O.X.",
"6 3 4 4 < q q e e f y e e w q 6 3 : : : : : , 3 3 6 w y g g k B B M M S S J W W W ) ) ) ) W ) ) ~ _ _ [ } } X.O.X.;.:.;.2.,.O.] ",
": - 3 3 < 4 w e e y e e w 6 4 3 3 3 5 3 3 , 3 3 4 w e y g k l V V N S D J W ` ` ' _ _ _ ) ) _ ) / ( } [ } +.O.O.,.,.5.,.O.4.O.] ",
"; @ % % 3 q w e e e w w 6 6 3 3 - 6 6 3 3 4 4 4 w e u u k l M V S S D E W W ` '  ._ _ | _ _ _  .^ } } } X.O.4.4.,.5.j.j.z.z.z.z.",
", - ; - 3 6 w w e w w q 6 6 3 3 4 6 6 6 4 6 6 w w f g k l b V J D D I E W ` '  .| ..| | [  . ...} } @.X.O.] ] ] 6.z.z.z.x.m.m.x.",
"5 ; % : 3 6 6 6 w q q 4 6 6 3 1 4 w w q 4 q w w e g h l b V S E T T W R _ ' ..| ..} } } ..{ ....} ..+.o.4.] z.z.z.z.z.z.x.x.m.m.",
"3 % : : , 5 6 6 6 4 4 4 6 4 3 6 w w w w w 9 d f f k l M V D E E E W W ~ ' .. ...} } } } } } ..X.} +.5.p.4.z.z.z.z.x.x.x.x.x.x.x.",
"3 % : , 5 5 5 6 5 6 6 6 3 1 3 6 d e e d e d f g k x x b S J E W W ` ) )  .&.} ..} X.X.} X.} @.>.X.;.p.v.x.z.x.x.x.x.x.z.z.z.x.x."
};
