/* XPM */
static char *xpm_[] = {
/* columns rows colors chars-per-pixel */
"64 64 154 2 ",
"   c #7EDAF7",
".  c #7CDEFD",
"X  c #7EE1FE",
"o  c #84DCF7",
"O  c #8BDBF4",
"+  c #84DEFC",
"@  c #8ADFFC",
"#  c #92DEF6",
"$  c #92DFFD",
"%  c #A2DEF1",
"&  c #8CE3F6",
"*  c #85E1FE",
"=  c #8CE2FE",
"-  c #8CEDFB",
";  c #93E3F6",
":  c #9BE3F6",
">  c #94E4FD",
",  c #9BE5FD",
"<  c #95EBFE",
"1  c #9CEBFD",
"2  c #8DF0FF",
"3  c #94F2FE",
"4  c #9CF2FE",
"5  c #A4E4F6",
"6  c #AAE5F6",
"7  c #A0E8F7",
"8  c #ADEBF7",
"9  c #A3E6FD",
"0  c #AAE6FB",
"q  c #A3EBFE",
"w  c #ADEEFE",
"e  c #ABEBFD",
"r  c #B1EAF7",
"t  c #B0EBF9",
"y  c #B1EDF8",
"u  c #B1EFFA",
"i  c #B5EFFB",
"p  c #B1EFFC",
"a  c #B3EEFC",
"s  c #B0EFFE",
"d  c #B4EFFD",
"f  c #B7EFFC",
"g  c #B4EDFE",
"h  c #B4EFFF",
"j  c #B6EFFF",
"k  c #B4EDFD",
"l  c #BEEEFA",
"z  c #BAEFFD",
"x  c #BAEFFF",
"c  c #BEEFFD",
"v  c #BCEFFF",
"b  c #BEEFFE",
"n  c #BCEEFD",
"m  c #A3F0FF",
"M  c #A3F2FF",
"N  c #A4F1FF",
"B  c #A7F1FF",
"V  c #A6F2FF",
"C  c #A4F1FE",
"Z  c #AEF1FA",
"A  c #A9F1FD",
"S  c #ABF1FD",
"D  c #A8F2FD",
"F  c #A8F0FE",
"G  c #A8F0FF",
"H  c #A8F1FF",
"J  c #A9F1FF",
"K  c #ABF0FF",
"L  c #A8F2FF",
"P  c #ACF0FD",
"I  c #AEF0FC",
"U  c #AFF1FD",
"Y  c #AEF2FD",
"T  c #ADF1FE",
"R  c #ACF1FF",
"E  c #AEF0FE",
"W  c #AEF0FF",
"Q  c #AEF1FF",
"!  c #AFF1FF",
"~  c #ACF2FE",
"^  c #ADF3FF",
"/  c #AFF3FE",
"(  c #AFF3FF",
")  c #ABF4FF",
"_  c #ABF5FF",
"`  c #ACF4FF",
"'  c #ABF2FE",
"]  c #B2F0FB",
"[  c #B6F0FB",
"{  c #B1F1FD",
"}  c #B3F3FD",
"|  c #B3F1FE",
" . c #B2F0FF",
".. c #B2F1FF",
"X. c #B3F1FF",
"o. c #B0F2FF",
"O. c #B1F3FF",
"+. c #B5F1FC",
"@. c #B6F0FC",
"#. c #B7F1FD",
"$. c #B6F2FD",
"%. c #B5F0FE",
"&. c #B5F0FF",
"*. c #B6F0FE",
"=. c #B7F0FF",
"-. c #B6F1FF",
";. c #B7F1FF",
":. c #B4F2FF",
">. c #B5F3FF",
",. c #B7F3FE",
"<. c #B7F2FF",
"1. c #B1F5FF",
"2. c #B3F5FF",
"3. c #B5F4FF",
"4. c #B6F4FF",
"5. c #B6F6FF",
"6. c #B3F3FE",
"7. c #B8F0FD",
"8. c #BAF0FC",
"9. c #BBF1FD",
"0. c #B9F1FE",
"q. c #B8F0FF",
"w. c #B9F1FF",
"e. c #BBF0FE",
"r. c #BBF0FF",
"t. c #B8F2FE",
"y. c #B8F2FF",
"u. c #B9F3FF",
"i. c #BAF2FF",
"p. c #BBF3FF",
"a. c #BCF0FD",
"s. c #BDF1FE",
"d. c #BDF0FF",
"f. c #BCF1FF",
"g. c #BDF1FF",
"h. c #BFF0FE",
"j. c #BFF0FF",
"k. c #BDF2FF",
"l. c #BEF2FF",
"z. c #BEF3FF",
"x. c #BAF4FF",
"c. c #BBF2FE",
"v. c #B6F8FF",
"b. c #BCF9FF",
"n. c #C1EFFE",
"m. c #C0EFFF",
"M. c #C1EFFE",
"N. c #C3F1FF",
"B. c #C1F2FF",
"V. c #C6F1FF",
"C. c #C3F2FE",
"Z. c #C9F4FD",
"A. c #C3FCFF",
"S. c #CBFBFE",
/* pixels */
"2 2 - - < 3 3 < < ; < 4 4 4 4 1 1 q M L S Z Z 8 Z R R w w w g k >.[ >.>.>.| | | 2.| R e w w w w r e.5.y 8 } v.2.Y Y Y L L L L L ",
"2 2 - - 3 3 3 < ; 1 1 4 1 1 1 1 1 M C L Z R Z 8 Z Z R g g g >.>.[ [ k >.k g w g 5.| R e w w R g u 5.5.u w { | Z Y Y R L L C L C ",
"3 2 - - 3 < 1 < 4 4 1 1 1 1 < 1 1 M L L R | u u u | | | | | >.>.[ [ [ [ g g | w | R e w R R R R R | | w Z e e L _ _ _ V C 1 1 q ",
"< < < < < 1 < 1 4 C 4 C 1 4 C C q M L R | >.[ f >.k >.>.k k k f e.8.e.>.>.>.| g w e e w | | w 0 e e e e q e q q C V C C 1 1 1 ; ",
"< < 3 < 1 1 1 4 M M M M q C C 4 1 q D Y 5.e.e.x k.e.e.>.k >.>.>.k.n k.k.e.u.>.| e e e e w w e q q q q q q q 1 1 1 1 1 1 1 < < : ",
"< < 1 1 4 4 4 M M q 1 1 q q 1 1 1 q e | u.k.k.k.v v v x x e.>.e.n n n.k.z.u.>.| g e e 6 q q e e q q q q q 1 , , , 1 1 1 1 < < < ",
"1 1 < 1 1 1 q q 1 1 1 1 , , : 1 : : e | e.C.V.V.n.n.C.v x k e.e.n n v k.k.e.k e e e e q 5 q q e q q q q 1 1 , , 1 , , 1 < < > = ",
"M 1 1 1 1 : 1 1 1 1 1 1 , , > : 1 : e | k.C.Z.Z.M.M.n.v x x [ 8.M.n n x x k g 6 5 5 0 q 5 5 5 q q q 1 1 1 1 , > < < > < > < > = ",
"q q 1 1 1 ; 1 , , > ; ; > ; , 1 : e 5.u.k.C.V.V.V.M.n.v f f [ k.n l n n x k 0 6 0 5 0 q e q e q q q q , , , , , , , , < < < , > ",
"q 7 1 1 1 1 < > < > > = = > < < 1 R 5.u.k.C.V.V.M.n.n.v v f k e.a.n v k.e.g e 6 0 9 0 q q e q q q q 9 , , 1 , , , 1 1 < > < , < ",
"M q 1 1 1 , < < < > > = = > > < 1 q e g f x k.n.n.v x k k t t k x v k.k.e.g 0 0 9 0 q q q q q q q q q , 1 1 1 : , , , , , < < > ",
"L M 1 1 1 1 1 < < < > - - - = = , , , 5 6 g k g k g g g e 6 5 6 t g k k g 0 9 9 9 q 9 0 q q q q 9 q q 1 q 1 1 , < , < < > , > > ",
"q q q 1 1 , < < > - - = = = * = > > , : 0 e e 0 e e e 0 0 5 : 5 5 6 e g e 0 5 9 9 , 9 , 9 , q 9 , 9 q , 1 1 1 , , > > , < < > > ",
": 7 q q 1 > > > > > = = = = = = = @ $ > , q 9 9 q 9 q , , # # : 5 5 0 e 0 9 5 9 9 , 9 9 , 9 , 9 , 1 , : , , , , , , > , , > > > ",
"9 9 q 1 , ; > > > = = = * = * = @ @ @ > > , > ; , , > > > $ > , 5 9 0 q 9 , 9 9 , , 9 , 9 , 9 9 , 1 , > : , , , > > > > , < > < ",
"L q 1 , > > = < = = = = * * * * = * + = > > > @ = @ = > > > > , , 5 9 0 9 9 , $ , , , 9 , 9 , , , , : > > < , > > > > > < > > > ",
"1 , > = = - - * = = = = * * * * * + = @ @ @ + @ @ @ + O O > > , , 5 9 9 9 9 9 9 9 , , , , , , , , > > > > > > > > > > < > > > ; ",
"> > - = * * * * = = = + + + + * + * * = = = = = @ @ o @ O > , , , , 9 9 0 9 9 9 9 9 9 9 , , 9 , , > $ > > > = > = = = < < ; > > ",
"> > = * * * * * * + @ + + * + + + * * = = = = = @ + @ @ $ > , , 9 9 0 0 0 0 9 9 0 , 9 1 9 , , , , > # > > > = = = = = < < > < > ",
"> = = = * * * - = @ + + * * * . X * + = @ @ + + + @ @ @ > > , , , q 0 q 0 0 0 9 9 q , , , , , , > ; # ; > = = = = = = = = > > > ",
"= = - & - X - X + + + + + . . . + + + + + + @ + @ @ @ = $ , , , , , 0 0 q e 0 9 9 9 , , , , $ $ > $ $ > = = = = @ * = = = = = = ",
"= - * * * X X X o + . . . . . . . + + + + @ @ @ = = = > > , , $ , , , 9 9 9 0 9 9 , , , > , $ $ > $ @ > > = = * o + * * * = = = ",
"- = - & * X X X . . . . . . . . + . + + @ @ = = = = > = > > , $ # $ , 9 9 0 0 0 9 , , > > $ > , > $ @ = = = = = o o * * + * = * ",
"* * * X X X X   . . + . . . . . . + + + + @ = = = = = > > , , $ , , , 9 9 0 0 e 9 9 , , > > , , > > @ = = = * + o * = * + * = * ",
"X X * X * X . . . . X X . . . . + . + + @ @ @ @ $ = > > > , , , , , 9 9 0 0 0 9 q , # $ , , , > > > @ @ = = = * * * * * * * @ @ ",
"X X X X X X . . . X . X . . . . + + + + @ @ $ @ $ $ = $ $ $ $ , , 9 , % 0 0 q 0 0 , : $ , , , > > > @ @ = = = * * * = * * * @ = ",
"X X X * * X . + . . . . . . . . + + = = > $ > O O @ $ > $ , $ $ , , 9 9 0 0 0 0 9 , , , > $ $ $ $ @ @ @ @ = * + * = * * = = = @ ",
"X X X * = * + + . . X . .   . + * = = > > > > $ > > > > $ , , $ , , , 9 9 q 0 0 0 0 , , , $ $ $ @ $ @ @ @ = + + + = = = = = = @ ",
"X * * - < = + + o o o .     o = = = = > , > > $ > , > > > > , , , , , 9 0 0 0 q 0 q q 1 , $ $ $ $ @ @ @ @ @ @ = = = = = = = = & ",
"- - = < < > > = = * * & o o = < = > > > > , > $ , > > > $ > $ , , , 9 0 0 0 0 e 0 e 9 , , > $ > @ @ @ $ @ o o = = = = = > > > > ",
"- & = < 4 , > , = = = - = = > < > > > > , , > > , > , > , > $ , , 9 9 9 0 0 0 e 0 q 9 9 , , , , $ > > > = o o * = = > > > > : ; ",
"- & = 4 C q , 1 , < ; < 1 , , , < > > , , , , , , , , , , , , , , 1 9 9 0 0 0 0 0 0 5 % $ , , , , , > > = O o = = = < > , , , , ",
"> < , C e q q q 7 1 : 1 q q q , q , , , 9 , , $ , , , , 9 , , , , , q q 0 0 0 e g 0 6 % % 0 e 0 g g 9 $ $ O @ = = > > , , , , q ",
"; < 1 C L q q q 9 : : q e e 0 0 q q 9 9 , 9 , , , , 9 9 9 9 , : , , , 9 0 0 e g x >.k 6 6 g g g k k g 0 : : > > > > > , , 0 0 e ",
"; 1 C Y R q e e 9 8 e q e q e e e q q , 9 9 9 q , 9 9 , 9 , , , 0 , 9 9 0 0 g k C.B.v n n n x v k n g 0 q C 1 > > , , , 9 0 e e ",
": 1 L 2.R w e R e e q e e e e 0 w q q 9 , 9 q q 9 9 9 q 9 9 9 q q 0 0 9 9 6 g x k.C.V.n.n v v v n v x k R e q , , , 9 0 0 e e e ",
": 1 D Z R R w R L Z R e 8 e g e | L q q 5 q q q 9 q 9 q 9 9 q q 9 9 9 0 0 6 k n M.n.M.M.n v v n.M.n x e.w q , : : 0 0 e e g k k ",
"7 C e R R | | | | Y | w u u k >.2.e 0 9 9 e e 5 0 q 9 0 9 0 9 9 9 5 0 0 0 t k M.M.M.M.M.M.n n.M.M.n n x g 5 5 5 5 0 g k x x k.k.",
"L L Y Y | | >.| | | >.| { >.e.u.{ e e e 8 e e e e 6 e e e 5 5 0 e 0 0 0 g n n M.M.M.M.M.M.n n.v M.n n n k 8 0 8 g g x k.k.C.C.C.",
"L _ 2.Y | | | | u | | { [ 8.z.u.8 8 w 8 g t k t u u g g e e e 6 e e 0 0 g g n n.M.M.l M.M.M.M.n M.n n n f k e.e.k.k.C.C.C.C.C.v ",
"L S R | | | w u >.{ { [ 8.8.a.z.r 8 8 y k z.z.z.a.l k x e.u t g w e w g g t f C.v n n n M.n l l l l l l f a.a.a.V.C.Z.Z.V.B.M.M.",
"L L R R R | | | { { y { [ [ 8.u.e.e.e.e.B.C.A.C.C.B.n a.k.k k t w e e w k f v C.C.B.M.n n n n n n n f l n n n n V.Z.Z.V.V.V.M.M.",
"Y L R w w R R R | { { { [ [ 8.a.z.z.B.k.B.V.V.V.S.Z.B.B.C.x g g w 0 e w >.x e.C.B.B.M.n n n n n n n n l n B.n B.V.Z.V.Z.Z.Z.C.V.",
"_ C L e w w R R | { { { [ [ z.k.e.k.C.C.M.C.V.V.Z.Z.V.Z.C.x n g 0 0 8 g >.e.k.C.B.B.n l n f k.f n f n l n B.C.C.C.V.V.V.V.M.M.C.",
"M C C e L e w L R R Z { [ [ 8.8.l b.C.C.C.C.Z.Z.Z.C.Z.V.C.n k r 8 8 g >.x x v C.B.M.l l f a.x x f f n n k.C.C.V.V.V.V.V.B.B.a.a.",
"q q C C L w e e e L R w { [ [ 8.8.,.9.C.C.Z.Z.Z.Z.Z.Z.V.n.f r r 0 g k x v v C.C.M.M.a.l 8.n x x v x n f v C.B.C.Z.V.V.V.B.a.a.8.",
"1 C q C C e C L L R Y Z | [ 8.[ [ 8.9.C.Z.Z.Z.Z.Z.Z.Z.C.C.x [ f g g x v v n.C.C.M.M.M.l a.a.x x x x f f v v C.C.V.V.M.V.C.k.8.[ ",
"1 C C C C C e q L R R L | | [ [ ,.,.9.C.Z.Z.S.Z.Z.Z.Z.C.C.k.z.k.x x v v C.n.C.v M.B.M.l k.a.k.x x x f n x k.C.C.n.C.n.C.k.k.k u ",
"7 q C D L L e R e R R R | 5.>.| >.e.z.z.C.C.Z.Z.Z.Z.Z.A.C.C.B.B.C.v v k.k.C.C.k.k.k.k.k.v v f f x x f f k.k.C.C.n n k.v e.k k e.",
"D D q D S L L R R R | R R | | g >.e.z.z.C.9.C.A.Z.Z.Z.Z.A.C.C.B.C.v n.k.k.e.k.e.k.e.k.x v f v f f k f f f e.k.k.f f x e.>.k k >.",
"C C D D L L S S | 2.R Z R | | | >.8.k.k.b.C.Z.Z.C.C.A.Z.Z.Z.V.B.k.k.e.8.e.e.e.[ x >.e.>.8.8.8.[ >.k f f f f f 8.f 8.>.>.>.g g w ",
"C C C D C _ S _ R R { Z | 2.2.| ,.u.z.a.a.C.C.Z.Z.C.Z.C.Z.C.B.B.8.8.e.e.e.>.e.[ e.[ >.[ [ [ >.>.f { { g u f u y [ [ | | | w w w ",
"C C C C D D _ _ A S Z 8 { 2.2.{ ,.,.b.b.C.A.C.Z.Z.b.Z.Z.b.9.C.b.8.[ u.[ [ >.[ 5.[ [ [ { { | | | w R R { { u Z w w Z w R L w e e ",
"V C C C C D D _ A S S A Z 2.} { ,.,.a.b.9.9.9.A.C.b.b.Z.9.l b.b.e.u.u.u.[ [ [ [ [ { { { { { Z | Z R R R R Z S S Z L Z Z R L L q ",
"M M C C C D C D D S S A _ Y 2.{ ,.8.8.a.b.C.9.9.l b.l b.b.[ [ [ u.u.u.5.[ [ [ [ { { { { | R R R L L L R L L e D L L L L L C L e ",
"M M 4 C 4 C C C D _ D D S Y Y Z ,.,.,.b.b.b.C.9.[ [ [ [ [ b.[ } [ [ [ 5.[ [ [ 8.i { { Z R L Z S L L L C L L D e L L L L C D D q ",
"D 4 1 1 4 4 C C D D V _ C S _ Y b.b.} b.[ b.b.b.u.8.[ 5.5.[ [ [ 5.5.u.u.,.,.u.b.[ { { 8 S R L L _ M C D V C 7 C q C q C C _ C C ",
"7 D 7 4 D D C D M D V C L L L _ } v.[ [ [ b.,.[ v.5.[ 5.5.{ | >.u.u.z.u.u.u.z.z.,.5.{ Z S _ L D C C C 7 C M C C M C M M C V C M ",
"D D Z Z D D Z D D D D V C C V L Z Z Z Z } [ 5.5.u.5.[ 2.5.| 5.2.5.5.u.u.b.z.b.u.b.5.Z Z S L C C 4 M 4 1 4 4 4 1 M M 4 M C C M q ",
"1.1.v.1.1.Z Z Z _ _ _ S S _ C L Z [ } v.} v.5.} 5.} { { | 5.| 5.5.5.5.u.u.u.u.u.v.v.1.Z D C M C 1 4 4 1 < 4 4 4 4 4 4 4 1 4 4 1 ",
"A.A.b.b.b.[ } v.1.1._ Z _ D D _ Z 1.1.1.2.2.2.Y | | Y 2.R 2.2.2.Z 2.5.5.v.u.v.u.v.v.1.D 7 7 4 4 4 3 < 4 4 3 3 4 3 4 4 4 4 4 4 4 ",
"S.S.A.A.b.b.b.b.v.v.1.1.Z Z _ _ 1.Z 1.1.Z Z Z Z Z R | R Y 2.2.R Z } 1.v.v.u.b.v.v.v.v.D C 4 1 4 3 < 3 3 3 3 3 3 3 3 3 3 3 4 4 4 ",
"S.S.S.Z.A.l b.b.v.v.v.v.1.Z Z Z Z 1.1.1.Y Z Y Y Y Y 2.2.2.2.2.Y Y Y 1.1.5.5.,.v.v.1.Z D C 4 4 3 3 3 < 2 - - 2 3 3 3 3 3 3 4 4 4 ",
"S.S.Z.Z.Z.A.Z.[ b.b.v.v.v.Z Z Z 1.1.1.v.Z Y 2.2.Y Y 2.2.2.v.2.Y _ _ Z } u u 5.} 1.Z 7 4 C 4 4 3 3 3 3 - - - 2 2 3 - - - 3 3 3 3 "
};
