/* XPM */
static char *xpm_[] = {
/* columns rows colors chars-per-pixel */
"64 64 231 2 ",
"   c #00040C",
".  c #030A0E",
"X  c #050708",
"o  c #000511",
"O  c #020C13",
"+  c #060D14",
"@  c #0C1215",
"#  c #05131C",
"$  c #0C141B",
"%  c #091419",
"&  c #11161C",
"*  c #131B1E",
"=  c #181A18",
"-  c #0D1924",
";  c #091523",
":  c #141D23",
">  c #181E25",
",  c #111E29",
"<  c #172025",
"1  c #1C2225",
"2  c #1C242B",
"3  c #1B282C",
"4  c #1D2A34",
"5  c #22292C",
"6  c #222627",
"7  c #2B302F",
"8  c #242C32",
"9  c #232E39",
"0  c #292E34",
"q  c #263135",
"w  c #2B3133",
"e  c #25313C",
"r  c #2C343B",
"t  c #2D393B",
"y  c #32393D",
"u  c #343838",
"i  c #31312F",
"p  c #3E433D",
"a  c #2B3641",
"s  c #2C3943",
"d  c #2E3D4A",
"f  c #253642",
"g  c #333C43",
"h  c #343F4A",
"j  c #3B4345",
"k  c #35424C",
"l  c #3C444B",
"z  c #3B4549",
"x  c #354451",
"c  c #3A4652",
"v  c #3D4953",
"b  c #3C4D5B",
"n  c #2F404A",
"m  c #3B5260",
"M  c #434A4C",
"N  c #484C49",
"B  c #4C504D",
"V  c #434C54",
"C  c #434F59",
"Z  c #494E52",
"A  c #4B5254",
"S  c #45525C",
"D  c #4B545B",
"F  c #4E585E",
"G  c #51565E",
"H  c #535B5D",
"J  c #585C5A",
"K  c #51514F",
"L  c #5D635F",
"P  c #455562",
"I  c #4B5661",
"U  c #4D5A64",
"Y  c #4E5D69",
"T  c #465967",
"R  c #525761",
"E  c #545C63",
"W  c #5A5E64",
"Q  c #555F6A",
"!  c #5B5F68",
"~  c #5A6265",
"^  c #55626C",
"/  c #5C646B",
"(  c #5E696D",
")  c #556263",
"_  c #5B6671",
"`  c #5D6A74",
"'  c #5D6D79",
"]  c #576771",
"[  c #4A606E",
"{  c #626A6C",
"}  c #646869",
"|  c #636C74",
" . c #696E74",
".. c #636E79",
"X. c #677174",
"o. c #6B7375",
"O. c #65727B",
"+. c #6B747B",
"@. c #6E797C",
"#. c #717574",
"$. c #71767D",
"%. c #737B7D",
"&. c #777B79",
"*. c #6B716F",
"=. c #7C807F",
"-. c #6B7681",
";. c #6D7A84",
":. c #687886",
">. c #737D84",
",. c #797F84",
"<. c #737E89",
"1. c #707781",
"2. c #768186",
"3. c #7B8385",
"4. c #75828B",
"5. c #7C858B",
"6. c #7D898D",
"7. c #7F8885",
"8. c #7B8691",
"9. c #7D8A92",
"0. c #798893",
"q. c #81868B",
"w. c #838B8C",
"e. c #8A8E8D",
"r. c #838684",
"t. c #8A928F",
"y. c #848D93",
"u. c #898E92",
"i. c #838E99",
"p. c #838790",
"a. c #869194",
"s. c #8A9295",
"d. c #85929A",
"f. c #8C959B",
"g. c #8D999D",
"h. c #87999D",
"j. c #919693",
"k. c #91969C",
"l. c #939B9D",
"z. c #9B9E9B",
"x. c #959997",
"c. c #9BA19E",
"v. c #8E9BA2",
"b. c #8A95A1",
"n. c #939DA3",
"m. c #989EA3",
"M. c #959EA9",
"N. c #9197A3",
"B. c #95A1A5",
"V. c #9BA3A5",
"C. c #95A3AA",
"Z. c #9BA5AA",
"A. c #9DA9AC",
"S. c #9FA8A3",
"D. c #9EABB2",
"F. c #9DA7B3",
"G. c #A2A6A4",
"H. c #A3A9A5",
"J. c #A1A6AB",
"K. c #A3ABAD",
"L. c #AAADAC",
"P. c #A9AAA6",
"I. c #ACB1AE",
"U. c #A6B0AF",
"Y. c #A3ADB2",
"T. c #A9AEB3",
"R. c #A7ACB6",
"E. c #A6B1B4",
"W. c #AAB3B5",
"Q. c #AEB8B7",
"!. c #A5B2B9",
"~. c #ACB5BA",
"^. c #AEB9BB",
"/. c #B1B5B3",
"(. c #B4BAB6",
"). c #B1B6BA",
"_. c #B2BCBD",
"`. c #B9BEBC",
"'. c #B9BBB6",
"]. c #B6C0BF",
"[. c #BBC2BE",
"{. c #C0C5BF",
"}. c #ADB8C1",
"|. c #B4BEC1",
" X c #B9BEC1",
".X c #B6C1C3",
"XX c #BBC3C4",
"oX c #BDC8C6",
"OX c #B7C2C8",
"+X c #BDC6C9",
"@X c #BDC9CA",
"#X c #BFCAD0",
"$X c #C1C5C4",
"%X c #C3CAC6",
"&X c #C1C6CA",
"*X c #C3CBCB",
"=X c #C9CECB",
"-X c #C8CAC7",
";X c #C6D0CF",
":X c #CBD1CE",
">X c #C5CED2",
",X c #C8CDD0",
"<X c #C6D1D1",
"1X c #CCD4D3",
"2X c #CFD8D6",
"3X c #CDD7DA",
"4X c #CFD9D9",
"5X c #D2D6D3",
"6X c #D4D9D5",
"7X c #D4DCDA",
"8X c #D9DEDA",
"9X c #D8DDD7",
"0X c #D0D2CF",
"qX c #DCE1DD",
"wX c #E0E5DF",
"eX c #C9D6E1",
"rX c #D2DCE3",
"tX c #DADFE2",
"yX c #DCE2E3",
"uX c #DBE5EB",
"iX c #DEE9F3",
"pX c #E1E6E0",
"aX c #E4E9E3",
"sX c #E4EBEC",
"dX c #EAEDE9",
"fX c #E4EEF3",
"gX c #EBF2F5",
"hX c #ECF8FD",
"jX c #F2FAFE",
"kX c #FAFFFF",
"lX c #F2F5FA",
/* pixels */
"G.P./.P.z.P.{.0X'.'.'.L.G.z.0Xx.P.#.I.H.H.].`.K.K.L.s.l.q.$.$.  $.! ,.1.p.G.T.m.K.K.).J.l.L.J.k.q.w.k.m.s.Z.m.l.k.y.,.>.V Z G z ",
"$X/.e.,Xr.wXz.0Xz.z.-X0X$XG.r.kXc.S.L.[.I.{.[.j.`.o.`.$.&X1.G 1 p.m.p.V.G.$X$.).m.u.L.m.T. .u.W q.u.m.T.V.B.V.D s.@.m./ h W { q.",
"/.= i 0X'.9XL -X9X-X-X5X-Xx.} @ c.%Xc.=X/.[.[.%X`.). X).T.& Z > L.X u.5Xu.0XJ `.L.L.,XW.1XH w.. } m.1 |.T.k._.j l.V.J.o.y u o W ",
"= @ K } J &.#.z.j.j.G.j.J W 1 i X N =.t.I.j.&.e.u.s.K W g 0 R 1 X l j K W $.u.r.w.s.k.r.H p.#.y y  .u. .3.o. .~ R  .,.+.+ h 8 g ",
"'.0X-Xu P.'.9X0X0X0X'.z. .J #.&.[.r.L /.[.I.w.].'.$X/.,.lXZ k.. T.J XXH e./.'./.} V.XXXXK.$.Z &Xk.a. .m.7.f.3.i.,.u.k.{ { $. .R ",
"/.dX5Xu '.= 9XdXwX6X8X-Xe.K } -X[.P.H.6X(.%X0X:X&X-XT.q.kXT.T.& XX_.'.#.e. X`.$X`.oX5X_.$X).}  X~.A ~.V.%.y.m.7.M ~.m.+.5.f. .z ",
"'.dXwXp 9X9X0XwXwXwXqX-X-X/.&.K :X=XqXqX%Xu 5X0X8X$XA m.lX&X_.. 1X9XK.q.$X$X-X=X/.1X*X&XXX&Xa.|.Y.z |._.u _.K.J.Z.m.M.>.y.u.u.r ",
"P.r.6XB 6XqXwXwXwXqX5X0X*.`.r.yX=X[.[.qXqX6XqX2X&X=X$XK.pX@ V.@ &X= 5XH.'.=X-X=X:X=X*X*XXX*Xm.XXXXW _.+XA _.+X).M.f.Y.3.f.m.D j ",
"I.qX{.p wXwXwXqXqXqX-XwXj.H.e.=X:X$X:X%X[.qX5X5XH.3.o.3.kXW.T.@ =X%X=XW.%X%X:X=X(.%X%XoX*XoXV._._.@.XX@X{ 3 j z h q.Y.p.s.y.@.g ",
"H.qXj.J qXqX[.6X9X9XaX6Xe.-X&.0X$X:XqX6X[.0X6X:X6X`.#.$XsX$XL.+ ).'.[.H.:X:X=X[.%XoX[.oX@XXXQ.>X|.3..X@Xw.{ F H D u.Z.F +.y.7.g ",
"t.5Xc.p p 6X9X5X-X9X9X&.0X$X#.6 1X1X8X;Xx.;X9X8X8X=X`.'.kX).).  [.j.[./.5X5X[.(.W.*XoX]._.Q.s.7 _.X.W..Xo.@X_.Y.u.W.Y.3.+.k. .z ",
"(.qX[.7 =X6XdX5X{.9X6X5X/.{.#.=X*X[.N %X%X:X=X:X1X%X5 J.tX$X&X  XX:X%XG.%X%X;XS.c.XXXXS.l.K.g.@X~.) _.oX3.K.K.E.R.q.N.5.( y.$.s ",
"I.dXH.i {.aXqXqX_.qXqX6X1XXX&.5 XX1X7X2X2X7XqX2X*Xe.|.E.sX Xi.  [./.[.W.1X=X%X7.[.oX.Xw.U.B.>.f.K.X.D C.g.Q.y.a.s.n.~.@.D 6.>.z ",
"z.0X5XN qX6X9X9X[.7X7X6XXX[.q.[.1X].1X1X2X1X;X2X7X X&X+XgXK.s.* G.S.=XH.%X5XoX%X[.[.<XA.@.g.@.OX^.{ _._..X).oXQ.E.i.V.2.2.7.o.z ",
"P.0X5XB %XG.qX9X:X5XqX7XdX].o.@ a.V.S.V.;X1X1X2X*XXXsXK.lXY.q.& (.z.G.H.%X`.XX].Q.oXE.U.A.l.X.g.W.3.7..X+XOX_.Q.n.A.s. . .N.+.G ",
"P.0X{.i I.[.6X5X1X=X2X1XoX).~ *X;XK.].1X*X;X:X*X1XXXl.T.rXm.,.@ '.%X&Xx.L.(.oXXX[.Q.S.f.e.) +.~.E.X.W.K._._.~.~.Z.Z.n./ ) 7.@.k ",
"'.@ I.i /.qX6X:XV.%X1X*X`.w.} *  XW.V.@X+X*X*XoX_..X).u.s.w $.& K..  X#.E.L.V.).,./.q.u.u.V l { B.~ a.E.( W.l.A.A.h.c.X.n X.F c ",
"e.I.z.= i L.W.s.M /.l.u.$.y h M } A 3.E.E.l.m.q.k.y.,.W / u. .> u.m.q.Z 3.l.u.e.$.,.$.$.p.+.l k.f.M { a.c.V.( t.=.=.~ D 3 / C O.",
"r.G.@ =.G.XXH.$XQ.,X,XL.&Xu.W lXw.m.4X3X:X;XoX&XXX&XXXZ.,.q.& @ q.J l.u./.XXL.].m.e.K.z.T.m.J.>X+.m._.^.U.W.U.V.A.U..Xh.> j % +.",
"e.P.G.j./.-X$X=X$XXX,XXX7XL.! m.K..X&X@XW.1X;X&XXXXXXXV.w.u.1.@ q.k.G.K.K./.].[.L.e.3.K.K./.u.V.y.g.V.^.W.W.V.U.E.S.A.6.% Q D I ",
"j.`.=X1 e.#.[.=XXX(.&XK.7.( t K.oX@.Q.4XK.oXQ.Q.V.&X_.>.1XZ.6.% q.K.E.J %.Q.[.].&.K.s.T.W.( M Y.Z.o.%.^._.W.W.a.S.K.V.i.V y._ V ",
"x.-X=X6 3.=X=X6X:X2X2XoX).%.s._.oX].XX;X1XU.;XU.^.*XY.7.jX^.g.* J.#.].7.t.=.oX;XK.oXE.)._.7.q.~.K.a.E.^.Q._.w.V.E.a.N.s.l <./ g ",
"x.tX9Xu V.*.yX6X7XqX4X*X).@X%.1X].W.1X7XW.o.XX[.XXXXyXg.fXOXA.< W._..Xq.@X@XXX;XoX(.Q.$.*X.Xg.K.E.W.XX.XW.W.U.A.n.Z.m.p.-.s.p.V ",
"j.u 1X7 5Xw.qX8X8X2X2X1X*XoX%.<XoX].;X@X;X@XqX@XS._.f.l.fXD W.< W.* <XS.;XoX*X&XXXXX_._.oX_.B.@XE.U._..XW.z z p * X % : 5.b.| g ",
"w.5X=Xy 1X7XoX1X1X4X1X].;X@X2.. W.E.4X@X<X<X<X@XQ.XXA.g.uXOXOX$ Q.oXXXA.oX.X<X.X.XXXXXW._.^.;.A.V.m.|.|.^.K.W.K.B.B.f.5.+.n.y.h ",
"q.q.,XA XX1X6X2X;X1X2XK.E.oXo.2X<XQ.XX<X*XA..X>XoXXXE.6.iXv.C.O A.hX^.V.XX.XXXoXOXOX.X^.A.!.2.^.Y.n.^.^.Z.^.n.y.s.+.E 5.<.N.| h ",
"V.3X+Xj 1X:X1X1X*X^.;XW.w.Q.a.E.].C..XXX.X^.oX_.^..Xg.6.hX.X!.$ !.OXY.Z..X;XXX^.E.OXW.!.E.n._ ~.n.f.A.D.Y.~.<.e q D...2._ b.<.D ",
"k.1X&X8 V.2 XXXXV.w.g.s.6.w.f.<X].A.t ^.A.~ <XZ..XW.% a.hX^.!.# }.OX^.@.2.!.}.!.D.F.V.M.n.b.Q }.Y.3.n.n.g.C.f.b.<.d.;.| c f.-.C ",
"@.>XY.5 ~ @.2.X.6.a.K.X.3.X.( V .X` 5.Z.A.Y.!.~.A.B.C.@.iX` d.- b., C.U ;.d.h.h.d.v.<.0.<.| b }.C.U Q 4.;.4.O.d.` S I C a 8...h ",
"$.f.u.R.V.E.W.K.A.Q.E.K.A.C.~ 5.g.A.Y..X~.~.^.|.!..XY.C.S @.;.o 4.9.5.D.C.D.D.C.F.C.C.C.C.i.8.0.4.9.d.D.M.b.v.i.M.M.b.<.a ` ` h ",
" .M.  &XgXZ.z X.a.q Z.O l.% X.uXg.g.8 B.% A.` ) B.. C.$ 4.4., # 0.M.4.<.O v.# C.;.e N.-.b.F.:.hX;.9.k d.i.4 i.0.0.o i.4 ` Y # T ",
"|  .,.OXi.Y.V.Z.l.S.6.s.a.6.g ) 2.y.g.v.n.y.y.a.d.9.9.9.C.-.] - 0._ ;.` 4.i.d.9...8.8.<.8.:.P ;.2.+.O.O.O.O.:.:.-.-.;.:.h b U U ",
"D m.K.K.f.m. XXX)._.J.l.k.G.G m. .W.J.~.^.A.W._.~.~.R.M.}.+.>.  s.n.p.n.R.J.!.F.F.R.F.F.M.d.a 1.+.,.f.h f.V.n.f.b.i.i.f.a _ Q p.",
"W kXM 3.kX*X`. Xz.K  X0 P.$.$.lXm.W.>.+XQ R.s.|.R.1.&Xi.| jXe o q.R.q.n.N.~./ Y.Z.@.R.R.R.1.a >X1.y.g m.k.N.V.u.p.,.F.D 0 iXo Q ",
"o.5. .u._. X X*X_.&X X/. X).+.. k.|. X*X~.W.XXE.).OX XR.! 1.+.o +.5 p.m.V. XR.!.!.D.A.K.N.J.p.0 +.k.1.3.m.A.Y.V.M.p.p.i.; ..h ..",
"T.m.m.& . * 1 7 & > 6 0 & & & l g r r 2 8 5 * 1 2 $ > > rX>Xb.3 k.s.R.- 8 2 r $ q 8 t 2 8 : $ W y O $ : 1 & + * : 5 $ o a M.-.1.",
"{ E V.1 E _.7XoXk.,X_.,Xf.f.>.lX>XJ.z &XXXl.A.g.R.*Xf.n.kX+.f.. a.5 ^.3.l |.A./ E 9.a.g.n.C./ }.N.~ jXR.y.A.i.Y.Y.R.i.Q Q i.h S ",
"@. XXX: |.*XE.1X).*X&X X}.J.f.>X>XW.&X>X@XXX@X.X>X+X|.|.iXD.Y.$ ^._.1Xg.|.OXA.2.B.~.OXC.|.E.3.|.Y.Z.R.A.f.K.~.A.R.!.M...a N.<.h ",
"X.XX*X7 XX2X1X4X1X>X1XW.W.Y.i.OX;X@X<X@X@XoX*X@X@X+X@X|.#XOX!.  }.*X].E.@X.X.X6..X.X|.^.^.|.s.Q.K.V.~.+XY.Z.Y.W.!.D.F.b.C i.i.a ",
"X.+XV.j |.*X1X7X>X3X*X+X@X!.+.v @X@X@XE.E.Q.@XXX@X@X|.|.XXe a.X Z.: }.t @XoXoX^.|..XOX^.W.}.2.a.s.Y.|.^.^.E.~.Y.n.M.F.N.C <.:.a ",
"o.|.&X5 &X2X*X;X1X<X) A.C..X..eXoXE.l..X].].@X].Q.l.OXQ.@X^.E.X E..X|.Z..XOX.X].A..X.X.XW.^.O.E.C.E.].].].].].A.A.C.C.;.c h.0.c ",
"%.*X).h :XoX%X1X<Xw.X.l..XOX-.|.K..X6.C.oX@X].oX.X].!.^.#XE.A.O A.j K.Z.].@X.X].].]..Xh..XB.D A.V.^.D.].^.Q.!.9.E.!.C.v.s d.` x ",
"{ _.T.u [.;X;XoX*XS.V.a.^.|.| |.XXQ.oXoXoX.X].]..XXX|.E.OXv.B.O n.Z.E.g..XQ.oXXX.X^.h.].E.C.6.E.C.A.!.A.!.Q.Q.A.A.C.A.h.k 6.O.k ",
"/ V.Z.y ;XoXoX%XoXXXQ._.|.|.-.|.A.V..X@XoX].oX]._._.XXW.uXC.9.* Z.f.E.c.]..X].]..X]..X.X^.C.( C.g.c.].U.^.U.A.A.E.D.C.9.z 9.` b ",
"^ +.E.t K.oXoX].[._.)._.~.~.@./ ^.Q.#X].@X^.Q.^._.|.W.R.).N.p.o E.% A.k.^..X.X^.].^.].E.!.A.@.< B.A.U.].Q.Y.D.A.E.Z.N.b.C y.I C ",
"( .XW.* U.z @X%XL.[.Q._.T.T...|.XXC.t.].].^.].].|.*XV.i.>Xn.M.  n.~.C.5.|.|..XQ.D..X].!.].A.U E.B.V.A.W.V.V.C.V.A.n.V.y.3 f.<.k ",
"F Y.^.< c.I.].oXt.I.W. .K.m.~ ^.A.C.j ].XX.X.X!.|.W.1.n.>XZ.N.o f.,.f. .W.W.Q.^.].A.].!.D.v.x B.Z.a.A.^.K.l.g.B.A.d.N.p.a 8._ h ",
"S 2.c.* f.].].Q.j.K.XXT.m.J.V 2.Y.t.h.]..XW.^.A.~.|.J._ Z.R <.+ @.| s./ y.E.E.l.] E.!.U.h.=.F h.s.o./ K.g.w.g.B.g.C.y.@ g { R R ",
"> 3.,.t h.6.7 L t.U.a.o.W.!.2.D.@.=.h.X.( @.o.q y >.F y 1.+.<.$ <.,.f.Z q =.~ ( o.w.W.a.f.n.b.i.Z.g 8 / X.D { H A f.g.n.y ~ D { ",
"D 5.+ o.fX@XsX].U.W.oX6.^.a.U OX2.A.] !.D.D.Z.U.A.rXA.j ,Xf.& $ <.f.5.9.) .X@.U.B.6.m.s.W.D @.|.G y. .^.B.A.f.g.c.o.f.O : + & G ",
"D p.i.$.B.E.Q..X].A.oX].Y.D.k v.6.6.E..XC.a.f.a.Y.A.b.n.>X .q.2 j ..@.n.A.^.E.^.K.K.f.i.,.<.| d.@.i.N.f.h.V.6.h.B.f.s.@.: / R R ",
"F F B.3 4X].E.Q.=.E.].].v.z q jX].h.6.!.c.C.A.C.f.5.S  .rX/ 5.+ <.Z.f.O.g.A.V.A.@.W.+X3.,.a v +.N.6.E A.U.B.E.h.A.h.( =./ ,.r V ",
"S E.C.3 ^.oXoX].^.A.].!.Y.!.P D.A.A..X].^.A.@.2.D.5.<.+.uX5.0.- <.f.<.b.!.}.W.Q.s.E.E.Y.C.n.Y Z.6.n.D.D.C.A.A.B.C.v.9.v.I ;.] c ",
"S O.v.3 OX].].!.E.C.A.E.E.C.O.C.Q.U.Q..X].D.l.W.~.~.5./ rX<.5.2 y.9 Y.f.E.!.^.W.E.E.K.C.D.A.5.b.C.g.E.A.A.!.h.A.C.h.v.O.S 4.I k ",
"c h.n.q Y.].A.z z n t D.D.!.O.F.g.].E.U.^.A.!.E.!.}.A.5.uX8.<.O 0.M.n.f.!.!.!.E.C.E.D.E.C.B.] Y.b.i.A.C.C.C.v.v.9.h.9.2.P 4.' e ",
"v D.g.% B.9.!.) #XH : A.F.C.| k A.B.W.].^.W.!.A.|.Z.b.2.rXi.2.  9.4 h.9.C.Y.!.D.B.D.v.A.C.Y.' ] i.g.C.C.D.h.B.v.h.h.9.@.9 ' S n ",
"S Z.M.$ i.| Y.Z.t..Xg n.A.v...!.A.A.l.A.^.E.Y.E.C.Y.v.4.fXi.d.  0.b.d.0.C.D.D.C.D.b.C.b.b.0.` v.C.9.M.C.C.n.9.b.h.9.4.' c 4.' k ",
"k f.N.; s.s.^.d.B.h.q d.f.v.U N.A.A.E.E.A.A.v.A.Y.B.C.4.iX4.4.  9.C 0.O.!.C.v.C.d.O.9.h.0.9.^ ;.0.d.M.b.h.| b.<.O.2.^ F ' ;.b k ",
"h >.i.% 8.( Y.E z r r +.p.8.Y eXh.h.9.h.C.6.v.h.C.v.4.;.yX_ '   O.4 4.O.9.C.v.b.;.0.i...' 0.c v.<.4.i.v.0.h <.<.[ ( O.~ -...S v ",
"a <.f.: ..E ,.N.6.OXs ;.1.+._ p.v.2.0.6.O.9.9.0.h.9.9.] rXO.O.o ] 4.;.F ] :.4.0.-.;.2._ ^ ( S v.0.] 0.<.-.E _ O.S ` ` ] U E I e ",
"g +.Q o D V <.D C ..h ..S S 9 o 0.S ^ 2.4.O.U Y O.O.S k D.D Q   ^ O ^ a f n e x h Q ] P x P x ; ' d T T [ 9 4 I V V c h c D 9 h ",
"8 R +.;.+.0.8.4.1.:.8.-.<...; _ ' O.0.4.;.2.O.] ;.O.-.' ..S V $ - Y v ] 2.:.0.4.;.<.:.;.' ' P m b :.:.:.:.:.;.O.O...` I   a h a ",
"h eX# Y.Y.:.# E h # :.U :.- ; lXY ] o 4.O ' v 9 @.# ;.o 1.>Xo   U ] ^ U o ;.; ' S o ..b ` O ] eXd T ; :.' f I d | o _ O > | ; O.",
"4 I s 4.v ^ ] U ' a ` U I S # h ' T Y Y [ ] Y T ^ S ^ U | c h   _ c , x U ] S T S P P D P P P x b m m T x P S C 4 I v d # s 4 C "
};
