/* XPM */
static char *xpm_[] = {
/* columns rows colors chars-per-pixel */
"64 64 253 2 ",
"   c #150100",
".  c #1B0200",
"X  c #1C0B00",
"o  c #0C0000",
"O  c #230400",
"+  c #240B00",
"@  c #2A0A00",
"#  c #340B00",
"$  c #2C1400",
"%  c #2A1804",
"&  c #331401",
"*  c #341C01",
"=  c #3B1C03",
"-  c #3A1906",
";  c #3A2307",
":  c #3A2715",
">  c #352A10",
",  c #3F2D23",
"<  c #441A02",
"1  c #442302",
"2  c #44240C",
"3  c #49290A",
"4  c #552908",
"5  c #472A16",
"6  c #552D16",
"7  c #4B341A",
"8  c #533314",
"9  c #58361A",
"0  c #50320E",
"q  c #663818",
"w  c #783C16",
"e  c #6C2E0A",
"r  c #4B3725",
"t  c #533522",
"y  c #543B25",
"u  c #5B3C25",
"i  c #5A3D2A",
"p  c #563928",
"a  c #513B2E",
"s  c #653B25",
"d  c #773A28",
"f  c #621E00",
"g  c #5B421B",
"h  c #64441C",
"j  c #5C4224",
"k  c #5C422C",
"l  c #57442B",
"z  c #5B4533",
"x  c #5D4B34",
"c  c #5C4B3B",
"v  c #564738",
"b  c #534A36",
"n  c #644323",
"m  c #63452C",
"M  c #644A2D",
"N  c #6A4B2D",
"B  c #6A4725",
"V  c #764928",
"C  c #76532D",
"Z  c #634B33",
"A  c #6B4C34",
"S  c #674937",
"D  c #744C39",
"F  c #6D5235",
"G  c #64533C",
"H  c #6C533C",
"J  c #6A573B",
"K  c #745334",
"L  c #73543C",
"P  c #755A3C",
"I  c #7C5B3B",
"U  c #795636",
"Y  c #6B512D",
"T  c #7A623C",
"R  c #584E42",
"E  c #5D5344",
"W  c #5C574A",
"Q  c #645544",
"!  c #645946",
"~  c #6C5A45",
"^  c #6C5D4A",
"/  c #675949",
"(  c #725641",
")  c #745B43",
"_  c #7B5D42",
"`  c #755D4A",
"'  c #685D52",
"]  c #6F5A50",
"[  c #5F614F",
"{  c #6B614D",
"}  c #7C6244",
"|  c #74634B",
" . c #7D634B",
".. c #796649",
"X. c #656353",
"o. c #6B6454",
"O. c #6B645B",
"+. c #6C6A5B",
"@. c #686757",
"#. c #726453",
"$. c #736D5C",
"%. c #786957",
"&. c #7A715B",
"*. c #6D6C63",
"=. c #736C64",
"-. c #6C7366",
";. c #747364",
":. c #7B7362",
">. c #73756A",
",. c #7A796B",
"<. c #787D72",
"1. c #854B29",
"2. c #865C39",
"3. c #8D5630",
"4. c #87643C",
"5. c #95653B",
"6. c #A36838",
"7. c #914E24",
"8. c #845D45",
"9. c #82654B",
"0. c #846B4C",
"q. c #8C6C4C",
"w. c #886645",
"e. c #956B48",
"r. c #8C724C",
"t. c #97744B",
"y. c #836C54",
"u. c #896D53",
"i. c #866B58",
"p. c #936C54",
"a. c #8C7355",
"s. c #86735B",
"d. c #8B745B",
"f. c #897657",
"g. c #937453",
"h. c #9A7B55",
"j. c #937559",
"k. c #947B5D",
"l. c #9A7C5C",
"z. c #977756",
"x. c #A47B58",
"c. c #A87348",
"v. c #8C7B63",
"b. c #867A67",
"n. c #947C63",
"m. c #9B7D63",
"M. c #967B67",
"N. c #837E73",
"B. c #846E63",
"V. c #A47B62",
"C. c #803810",
"Z. c #7E8375",
"A. c #7E816C",
"S. c #9C835D",
"D. c #98855B",
"F. c #A2835C",
"G. c #A8855C",
"H. c #B5895D",
"J. c #AE905C",
"K. c #8C8067",
"L. c #9D8364",
"P. c #94846B",
"I. c #9B856B",
"U. c #9B8A6C",
"Y. c #978666",
"T. c #868576",
"R. c #9C8B72",
"E. c #958873",
"W. c #9D9276",
"Q. c #A38463",
"!. c #A48A64",
"~. c #A48C6C",
"^. c #AB8C6C",
"/. c #A78868",
"(. c #B48B67",
"). c #AC926C",
"_. c #A6936B",
"`. c #B3936D",
"'. c #BA956A",
"]. c #A38C73",
"[. c #AA8C74",
"{. c #A49374",
"}. c #AC9573",
"|. c #A4937A",
" X c #AA997A",
".X c #B49573",
"XX c #B49B74",
"oX c #BB9D76",
"OX c #B49D7A",
"+X c #BB9C7A",
"@X c #B5957A",
"#X c #B48F76",
"$X c #BCA27D",
"%X c #B7A27A",
"&X c #ABA27C",
"*X c #C49B77",
"=X c #C79668",
"-X c #C2A37C",
";X c #C7A67A",
":X c #D1A97A",
">X c #AA9A82",
",X c #B79D83",
"<X c #B4A484",
"1X c #BCA482",
"2X c #BDA985",
"3X c #B9A88A",
"4X c #B4A98A",
"5X c #9C8983",
"6X c #C3A484",
"7X c #C3AB84",
"8X c #CAAB85",
"9X c #C4AC8B",
"0X c #C9AB8B",
"qX c #D5AB8C",
"wX c #C4B28C",
"eX c #CBB28C",
"rX c #CCB689",
"tX c #D3B68B",
"yX c #CBB593",
"uX c #CDBA93",
"iX c #C7B997",
"pX c #D2BC95",
"aX c #D4BD9C",
"sX c #D9BA97",
"dX c #CDAE94",
"fX c #E2BA96",
"gX c #C9AF98",
"hX c #CCC19C",
"jX c #D5C39B",
"kX c #DBC39C",
"lX c #D8C497",
"zX c #DDCC98",
"xX c #E4C59C",
"cX c #E1D09C",
"vX c #CEC5A3",
"bX c #D5C4A2",
"nX c #DBC4A3",
"mX c #DCCAA4",
"MX c #DCCCAB",
"NX c #D4CAA8",
"BX c #DDD3AC",
"VX c #DDD1B3",
"CX c #E2CBA4",
"ZX c #E3CDAC",
"AX c #E8C8A7",
"SX c #E3D3AC",
"DX c #E7D4A9",
"FX c #E4D3B2",
"GX c #E8D9B8",
"HX c #F0D0B0",
"JX c #EBE4BA",
"KX c #ECD9C3",
"LX c #EDE1C4",
/* pixels */
"X iX3X>X5X' 5Xc : t 2 ; u & 5 : 3 s z.u.7 X . + > 7 7 5 = 3 1 1 h 1 g k J f. XwXrX%X:Xt.;XtXrX).!.).`.F.'.h 4.4.G.(.t.h.z.V._ - ",
"y.GXo VXVXb.KX5XGXKX1XHXnXHX& ZX9.g.AX6X7 7 GXd.| GXnXAXZXaXAXn AXCX. sXiX9XMX; r.xXtXF.4.lXO eX0XX r.7X$XC (.4.G.G.1 x.O N 9.O ",
"8XDX3Xd.<XiXVXvXSXcXcXcX%XXX7XdX8XF.g.sXbX}.FX9Xi.MXZXdXjXsX8XS.tXoXtXrXjXT 7 }.-XsXxX'.:Xt.3 P m ; 0 r.(.!.h.F.C h 1 # < s i.O ",
"fXtX= ZXX  XBXJXJXDXD.cXcXDXHXpX$X!.B 8 ZX1X0X) MXX 1XnX_.rX-Xg tXtXlX%XaXyX7 !.& 8XxX'.;Xr.M   9.XX2X6X!.B t.h.e.C x.Q.O dXO # ",
":XfX< @ . 3XVXJXBXBXGXDXJXDXDXCXr.& & q.fXq.AX@ Z X Y FXjXwXxX4.oXlXlXxXSX9X* . @ .XfX/.+X1 . O J }.eX$XF.U t.w.g.4.n < . D 5 - ",
"qX(.V.AXZXKXKXLXJXJXGXJXDXSXmXnXjXrXoXxXHXz.fX8.k.&XzXBXDXjXlXC J.lXcXtXZX7Xl.N h -XxXF.j = /.].yXrX0X}.l.B q.G.g.z.u.L ( 9.: & ",
"fXAX(.HXFXKXKXKXVXVXGXGXFXhXiXZXDXzXfXsX*X4 qXK FXSXDXSXBXSXlXtXF.tXtXlXwXl.xX6XHXDXsX+XeXm ].aXjXyX9X6X).g..XoXF.^.m.g.s /.i.O ",
"AX5.qXHXFXKXKXKXVXLXBXGXFXGXFXFXDXCXtX2.q < < q 2XGXDXDXSXzXrXwX;XlXlXpXmXeXsXOX$XAXCXeX  9 pXbXaXyX2XS.XX`.).h./.`.Q.^.M D & O ",
"xXtXtXHXFXFXwXBXBXJXBXGXSXjXSXmXjX$XtXfXHXq < 4 1XSXGXGXBXSXZX^._.zXlX%XOX6XyX0X& CXZXtXrXXXmXuXhXrX%XD.}.XX`.G.F.h.F.S.P a.9.; ",
"`.Y eXkXZXZXbX X3XFXSXFXSXFXhX}.jXD.lXHXHX1 U q bXJXGXFXNXBXSX2X$XhXrXuXaXyXaXyX1XDXSXsXr.%XjXpXlX$XT 4.!._.J.F.Y G._.g.U ^.k.3 ",
"HXXX7XpXbXmXFX3XFXLXGXFXSXBXmX_.jXwXkX(.fX# 6 #XFXGXGXSXNXMXMXyXmXNXjXzXyX2XwX9XeXmXZX7XCX!.rXeXrX$X$X_.XX).D.r.9 4.F.h.M I * 3 ",
"CXtXXXCXbXaXBXFXBXGXMXmXmXDXhXwXzXuXI n AX4 qX+XZXFXGXGXBXVXMXbXBXSXhXbXwXnXjXiX% uXmX} ; n *XtX7X%X%X_.XXJ.J.U F.h.G.r.w.~.g.0 ",
"tXC !.tXSXmXBXBXBXBXbXbXmXjXuX7XuXxXrXI CX& sXj MXMXGXMXNXVXMXMXuXSXjXDXkXCXpXpXmXmXmX%XT n qX8X$XrX}.D.T w.D.G.F.).F.h.T ).P ; ",
"AXsX*XxXjXNXBXNXNXhXbXbXzXjXXXlX%X7X8Xg.uX& 9.L.MXFXFXnXvXNXNXMXuXmXmXlXCXpX7XeXj SXnX1XK 2.x.'.rX%X%XD.8 T !.XXF.S.S.g.P ^.0.9 ",
"qXV /.sXmXhXvXvXvXNXBXjXjXmXC rX;XeX-XS.nX* dXl.ZXGXGXZXbXNXNXNXmXzXwXF.eXlXuX%XbXZXbX9Xw.V q s r.7X7X%X).Q.).XX).Q./.l.P /.0 8 ",
"c.< w.tXBXNX3XNXNXvXNXNXBXjXzX$XrX7X$XD.uX; 0X9.MXFXAXnXbXvXNXNXmXmXXXB 0.XXXXr.X jXwX8 2 6 s s 7X2X%XXXXX}.).XX).).l.l.} l.u.u ",
":XH.oXtXuXwX<XD.hXlXzXhXzXpXrXD.pXXX8XXXuX; /.q qX6XsXsXbXiXNXiXBXbXuXXX%XrXD.z.sXpXsXXX2.e.Q.,X9X<X X&Xf._.&X_._._.S.f.} 1Xn.7 ",
":XJ.4.I dXeX0.g hX2XhXjXyXwX%Xg ~.1X-XF.0X9 *XU w.2.K @XaXwXhXhXvXjXmX7XtXrXL.!.~.lX;X;X(.U dXH ~. X&X<X_.%X_.%X}._.D._.P X   t ",
":XH.B s 1XbXiX3XhX&X4XhXaX9Xq._.XXP %X1 ^.8 '.6 h.O Q.6X}.jXiXY.hX2XpXtX8XoXT F 0 yXlX).N 8 + k %Xf.%X2X2Xf.}.}.L.D.z.f.m I.y.p ",
"=X(.C qX; 4XhXiXhX4X2X2X2X2XOXXX%X= N h 6X4 *XC 0 w.Q.7XmX2XiX_.aXiX7X8X8XF.8 D.XXwX$X%X}.P k.f.U.}.yX1X}.G.}._._.G.D.L.m a._ t ",
":X=Xw.6X  F %X2X2X2X4XwX2XwX%X&XoXoXrX`.*X8 8X*XqXC ~.9 %XD.uXU.wXbX0X-X8X).; ; x uX7XY 1XZ 3X  Y }.OX7XOX3 _.!.h.h.U 0 0 = O 6 ",
"=XH.e.q 8 l._.g.;X$Xg $X.._.J.!.F.B Y 4.6X9 6X& $ 0 _.rX7XXXpXwXiX3XuXrX;X-XL.}.&X2X}.g._ j.n.n.~.oXS.OX+X6X`.`.S.h.`..X9.l.t 5 ",
"=XH.c.'.x.B e.h t.'.;X;X%X;X:X:X'.9 1 1 (.9 $XT `.~._.; ).g.rX+ Y.wX).h w.$X0.* % wX}.$X6X/.O @X@X).4.g oXK h.g w.h.9 Y = p.8.u ",
"=Xc.3.G.3.4.1.'.c.=Xt.J.J.oXh J.'.;X-X`.*X1 7X2X-XD.2XuX$X).8XwX%X%XXX%X;X%XL.{.OX2X$X^.6X@X,X,XoXq.).l.l.I w.w.h.S.w.U s w.L # ",
"6.:XH.c.x.(.(.H.H.(.=X'.(.'.J.'.e.F.;Xh.;XB 0XyXyXpX X_.!.).8X$XXXG.G.5.t.oX0.).iX9X~.).+X@X( >Xl.K S.U n O U 1 4 4 < K 8 8.L # ",
"H.:XV 1.K g.Q.t.G.(.G.x.F.x.t.5.4.C ).t.#XI OX3 }.J T }.}..Xh.C e.V V c.;X=Xn 7Xk.2X~.}.k.a.) >X%Xa.OX/.q.a.K r.S.& h 1 B z.# < ",
"=X:X4 .X~.1X2X%X1XOX_ 0X6X@X4..X(.G.$ h.^.B ,X+ {._.3XiX%X8X$X'.H.q V 1.1.5.w.w.$ 2X X%X....|.4X2XOX}./.1Xu.~.Q.w.T g w.# 8.A 3 ",
"c.(.s @X X&X<X4X4X X<X<X3X6X/..X`.oX/.h.6X2 }.d.<X3X4X3Xf.h.^.8 e w f f c.1.2./.OXjXU._.D.f.R.>X<XOX].{.Y.L.L.L.w.h.g.l.L l.A 9 ",
"e C 6 D >X,X4X>X<X<X4XW.3X4X^.OX).`.F.2.6X5 9X .<X3X&X&XP _.).4 f C.C.e C.e H./.~.pXT S.j y.I.>X X X X|.Y.I.~.k.k.l.l.l.p.l.9.A ",
"V V 2.j.].W.W. X&X>XW.4XE.>X&X_..X!.z.U [.& 9.Z >X4X4X Xf.{.$X`.e 6.6.7.c.7.e.'.g I q.I = u M.|.|.W.|.R.R.].v.n.L.k.P j.D /.# 9 ",
"1.q s V.M.>X X|.U.&X&XU. X&.{._.D.D.g.h.l.& m.y >X>X&X XU._.2X2.1.6.6.6.c.5.t.e.< Q.h.C B 1 L /. XW.W.U.W.K.v.v.0.~.} w.N j.A u ",
"c.1.q x.@Xm.M.|.W.W.U.E.|.W.{.Y.L.~.q.3 _ O L k E.W.W.W.Y.&X_..Xc.H.3.6.5.5.t.e.p.`.e.q 9 < u.I.R.E.P.W.P.K.n.d.f.F 0.9.A 9.u.u ",
"x.5.8 h./.~.E.R.W.U.W.K.R.{.U.~.j.Q.r.z.I.  /.( E.P.>XR.|.v. .I.I.].!.L.).g.a.u.U. XQ.V.V.u.gX: b.E.W.I.v.f.d.f.k.k.a.u.m [.+ k ",
"'.t.6X& H K.P.E.W.E.U.K.Y.U.k.m.S.Q.3 2 ~.O . 7 t v.R.]. XE.I.R.|.E.W.{.L.D.$ ;   <Xk.m.j.= +   { E.R.R.Y.n.d.u.a. .n.9.S 9.H ( ",
"#X( @ + y v.v.P.E.K.P.K.f.S.l.z.a.x Z S ].X v.i { E.E.|.E.R.v.P.P.|.|.U.D.k.) y.E.4Xf.^.8.( ` i.E.R.|.P.K.f.a.a.a. .A ( i y.n.i ",
",X9.i.u.M.v.s.R.K.Y.k.l.r.I h V k.n.M.y.s.$ i.i.x P. .s.E.E.R.R.I.R.K.L.n.m.$ |. .R.L.g.w.N bX  %.I.I.n.d.d.u.u.a.y.( u.  ( y t ",
"#Xp.9 [.O 8.u.q.l.q.q.C e.V 2.w.I   A M n.= j.< n.  } 9.d.[.Q.n.I.Y.U.k.u.L +   X >Xy.m._ K 2   7 d.k.d.0.a.} F k P A @ @ gXi - ",
"V.s D # 3 0 2.K I w.w.2.C 2.4.8.a.I.,X9 M.5 D 0X7 u L g.~./.^.+X].I.<XyXOX~.M.I.W.,XH 9.8.+X) k.j.u. .d.9.j a.Z } P ` A y.7   6 ",
"V.x.O _ 0.= T & q.a.O P ~./.= n.&.. r 5 i.2 @X  + I.I.; f.f.L u Z j.k.  j.A S 5   v.A z.p.q.O d.d.& 9.9.a.} } } Z 0.= H + ` S 7 ",
"8.q.D 8.I a.k.y.0. .f.s.s.s.v.%.b.P.B.M.d.+ i.i.d.P.d.n.f.L.m.a.a.m.Y.L.j.n.v.v.P.P.L K w.w.a.k.k.0.u.P 9.) }  .`  .u.9.H ( ( 5 ",
"= L m M i 9 j 5 - + % r ; % > : a l r S a O i ( y U.G n.Z | f.H  .9XL.j.l./.].>X,XR.( j.p.V.m.{.@X[.L.n.0.G  .f.d.y. .` 9.9.i.p ",
"= +X6X/.[.].m.F m. X$ M.a R.* |.U.v.,XO i.@ V.m.$ k. X%.P.y.f.H n.I.n.k.j.u.M.3Xr >Xi.u.w.qX. ~.Y.. Y.d.J 7 s. .y.L k i.( 9.@ t ",
"D 9.# /./._ ,X= M./.n.].m.k.l.Q.d.Y.a._ p.# V.p.9.k.~.Y.Y.s.n.n.I.U.Y.L.u.m.n.|.R.].y.z.w.I ....M.U.s.s.| %.~ %.y.| Z k i t m 9 ",
"i.A u Z ( Z H Z (  .+  .P m F M F } Q.6 8.< p.6 H %.n.J | &.s.%.v.v.f.u.0.u.i.i.B.[._ u.q.P k.> Q | | v.b.  s.~ ~ ~ | VX& KX. m ",
"%.M.  gX  =.N.E.T.E.E.E.E.U.P.s.I.ZXO 8.8.# ( p.%.o ! T.E.N.T.b.b.v.D.f.f.} . n.. y.9.q.I A |   r &.b.&.&.:.#.&.%.| l t + - O P ",
"n.B.+ a   a T.N.T.T.T.T.T.T.T.b.+ . O 8.8.2 s # X o G A.<.<.N.,.b.b.K.&.a.P @   + y.0.q.N 9 % > / $.$.$.$.$.o.$.#.{ Q J k A A Z ",
"m. .y J ~ &.N.T.T.T.Z.T.T.T.,.K.y.K 2.q V.6 s 6 ..&.&.:.T.;.,.,.,.:.%.f..... ...) f.P 0.n j ^ b.$.$.:.$.$.+.:.X.o.#.^ x M  .A n ",
"u.k.k y.v.b.N.N.Z.Z.Z.Z.Z.Z.T.T...g.x.1.V.< V.< &.&.b.N.;.,.:.:.:.,.&.&.k...d. .d.2Xj 9.L y %.K.,.,.+.;.+./ +.+.#.{ ^ G k ) m.9 ",
"9.m.S b.b.N.T.N.Z.Z.<.Z.<.T.T.,.a.B < < U < 8.3 %.A.N.,.A.,.&.:.,.;.*.$.$.%.%.%.M j k  .: % O.N.;.,.+.o.#./ ! #.| | G H k t 6 B ",
"S ) b b.K.<.,.,.<.>.Z.<.<.N.<.<.s.9.V d h.< p.t :.+.:.=.;.&.b.%.&.;.;.>.,.$.#.] ) ~.$ d.| v =.=.+.*.+.o./ G ! { ^ ^ ^ H ; m # V ",
"Z s.c $.$.>.>.>.<.-.Z.-.<.Z.>.,.b.n.u.B z.& p.s #.=.%.B.$.&.J f.:.:.=.=.;.$.O.] ..u.5 i.Z c ' *.=.*.$.$.{ ! o.{ { Q G Q i M A q ",
"7 Y.x #.$.>.>.-.-.<.-.<.<.*.>.,.$.&.9.I _ & z.t | :.B.% K.%.....&.=.*.*.+.%.O.#.) H t ` y.z / =.=.+.O.#.^ / { ! v { Q H z A 8 n ",
"2 ( t &.:.*.*.>.>.*.W =.<.,.;.O.:.$...0.D - < s ` #.] 5 %.i...%.+.+.*.+.+.%.#.] Z L < `   % R *.O.+./ ' ! W ! E R E c x y ( < 9 ",
"K m s 9.#.o.*.>.>.*.*.N.*.=.O.$.X.{ P F _ 2 p.< ] o.B.i.B.#.| b.+.+.*.*.$.$.] ] $ I.&  .` , Q ' o.o.o.X.' E W W E b Q c y u L n ",
"w.D D D #.=.;.*.>.*.>.>.*.$.%./ G | ( p.8.2 p.7 #.$.#.] O.=.O.$.;.-.*.O.@.@.O.o.&.v.% #.G 5 v #.^ ! ! X.W R W R ! v v a k ) A u ",
"w.8.6 9 ] #.X.@.O.O.O.O.*.' &.v | H 8.V I 2 u.: ! o.=.%.] ' O.O.+.+.@.@.X.o.X./ P.v.: ] r a R / / v c / E c W b b R v c y ..m u ",
"8.w.s D ^ X.[ @.O.O.O.O.X.o.! %.` _ 8.8.8.< ` : / ' O.' O.+.[ [ +.[ X.X.o./ ! ~ . ` 5 Q + % v Q Q Q R R a v E R R E v z z i.; A ",
"D 8.9 D ~ W X.X.' ' O.O.X.{ : J ( ( D D _ < ( a E ' ' ' ' o.X.{ W X.X.{ { J z Z 9.9.t ( S ; Z z Q S Q E W E R R c v v z r k p H ",
"8.2.6 t S ^ ^ E ' / #.] | ..Z ..( 8.S p ( 5 Q z &.> o.#.^ ! { G ~ | Q ~ ~ J G p p ` t ( S 6 M.7 S ] Q Q W E Q R Q z c M.  3X$ i ",
"D D - [.  k ` #.] ]  .S Y F T N D @ # p S 5 ( O :   x x x J H ) } ..( ` A k . H    .d ( S s s   2 ( Q ] R a Q R v Q Z d.. ~ . 5 ",
"d D 5 O # y H L D _ U s 6 V 8.V u s i m S 5 ( d 6 t p Z J J P F ( G Z Z Z N 5 2 s ( p ( D t t 5 r S R i a r a z i p p : i Q a r ",
"p s ` S H  .u.m.8.K V 4 e V V V V 4 _ 2 D # 8.# D D A  .J J  .f...%.P..._ L  .i.- L i S i S ( i Q i.Q R v . ] ( p i 5 p r %   5 ",
"5 i.i x | Z D 8 N 6 6 4 1.1.V w V V C s s # d d q 6 A $ G 7 M y x J r l ; l S 5 - Q i v S S # i ( a i r c a i i p 6 2 6 a a : , ",
"X G Q b G Z ) K L B q 3.1.1.V w q q C C V # d d 3.d D y.~ G H Z x G J l Z t r Q ^ Q r c i S S i i i a i a a S i t - 5 t p r , + "
};
