/* XPM */
static char *xpm_[] = {
/* columns rows colors chars-per-pixel */
"64 64 206 2 ",
"   c #635E4B",
".  c #625F50",
"X  c #7E714F",
"o  c #656355",
"O  c #6D6655",
"+  c #64645A",
"@  c #6A665A",
"#  c #6D6A5B",
"$  c #6A6C57",
"%  c #726C5A",
"&  c #6E715E",
"*  c #73705F",
"=  c #7B735C",
"-  c #7D7252",
";  c #676D61",
":  c #6C6D62",
">  c #6B6F68",
",  c #646D6A",
"<  c #736E62",
"1  c #667167",
"2  c #6B7164",
"3  c #6C746A",
"4  c #6D796F",
"5  c #727465",
"6  c #7A7563",
"7  c #777865",
"8  c #7F7964",
"9  c #73766A",
"0  c #787569",
"q  c #737A6D",
"w  c #7C7C6C",
"e  c #6D7671",
"r  c #6E7A73",
"t  c #6F7E7F",
"y  c #717670",
"u  c #747C74",
"i  c #7B7E72",
"p  c #727D7A",
"a  c #787E7A",
"s  c #846B46",
"d  c #856D4B",
"f  c #85704D",
"g  c #88714D",
"h  c #836E51",
"j  c #857353",
"k  c #8B7453",
"l  c #877857",
"z  c #8A7857",
"x  c #87765A",
"c  c #8A765A",
"v  c #86795C",
"b  c #8B7B5C",
"n  c #917752",
"m  c #927C5B",
"M  c #917953",
"N  c #847761",
"B  c #847C64",
"V  c #8A7D63",
"C  c #837D6B",
"Z  c #8A7F69",
"A  c #917E60",
"S  c #837F72",
"D  c #7D806F",
"F  c #69827F",
"G  c #738076",
"H  c #7C8174",
"J  c #75827C",
"K  c #7C847C",
"L  c #7E887E",
"P  c #8F815E",
"I  c #858066",
"U  c #8D8264",
"Y  c #85816D",
"T  c #8A826B",
"R  c #8C886F",
"E  c #938463",
"W  c #95856D",
"Q  c #958A6E",
"!  c #998968",
"~  c #838374",
"^  c #8B8572",
"/  c #8B8877",
"(  c #82857B",
")  c #89867A",
"_  c #84897D",
"`  c #8B8A7C",
"'  c #978770",
"]  c #938A75",
"[  c #918E7C",
"{  c #95927F",
"}  c #707D83",
"|  c #6F8B8E",
" . c #6B8586",
".. c #758584",
"X. c #7A8683",
"o. c #768985",
"O. c #7C8A84",
"+. c #74858A",
"@. c #768A8B",
"#. c #7C8C8B",
"$. c #7D908D",
"%. c #758791",
"&. c #758C93",
"*. c #7A8D92",
"=. c #748F98",
"-. c #769296",
";. c #7D9294",
":. c #76959C",
">. c #7C969A",
",. c #77989F",
"<. c #7D9A9D",
"1. c #7597A0",
"2. c #7997A1",
"3. c #779AA3",
"4. c #7C9CA4",
"5. c #7D9EA9",
"6. c #7FA0A7",
"7. c #7EA2AC",
"8. c #7EA4B0",
"9. c #818780",
"0. c #838B84",
"q. c #8A8D83",
"w. c #828D8A",
"e. c #898E89",
"r. c #8C9185",
"t. c #84918D",
"y. c #8B938C",
"u. c #88988E",
"i. c #9C9683",
"p. c #9F9886",
"a. c #96998E",
"s. c #98998B",
"d. c #808E91",
"f. c #829494",
"g. c #889794",
"h. c #849895",
"j. c #8D9A93",
"k. c #81969A",
"l. c #839A9C",
"z. c #899E9D",
"x. c #939A93",
"c. c #989E94",
"v. c #86A09F",
"b. c #8DA29D",
"n. c #92A39C",
"m. c #A3A192",
"M. c #829FA5",
"N. c #819FA7",
"B. c #819FA4",
"V. c #869FA4",
"C. c #849FA6",
"Z. c #829EA3",
"A. c #899EA2",
"S. c #889FA5",
"D. c #809DA8",
"F. c #819EA9",
"G. c #85A0A1",
"H. c #81A0A5",
"J. c #80A1A6",
"K. c #82A1A6",
"L. c #83A1A5",
"P. c #84A1A5",
"I. c #87A0A5",
"U. c #85A0A7",
"Y. c #86A1A6",
"T. c #82A1A5",
"R. c #89A2A6",
"E. c #8EA2A1",
"W. c #80A1A8",
"Q. c #83A0A9",
"!. c #81A2A9",
"~. c #80A1AA",
"^. c #80A2AB",
"/. c #82A3AA",
"(. c #82A2A9",
"). c #86A1A8",
"_. c #85A2A8",
"`. c #87A2A9",
"'. c #84A2AA",
"]. c #84A1A9",
"[. c #81A4AA",
"{. c #83A4AB",
"}. c #82A5A9",
"|. c #81A3AC",
" X c #82A3AC",
".X c #81A3AF",
"XX c #81A1AC",
"oX c #80A5AD",
"OX c #82A4AD",
"+X c #80A5AE",
"@X c #83A5AE",
"#X c #81A6AF",
"$X c #81A6AC",
"%X c #84A5AC",
"&X c #86A4AC",
"*X c #84A6AF",
"=X c #81A2AB",
"-X c #89A2A9",
";X c #89A5AD",
":X c #8AA8A8",
">X c #80A1B0",
",X c #80A4B0",
"<X c #82A6B0",
"1X c #81A5B0",
"2X c #83A8B1",
"3X c #99A9A6",
/* pixels */
"-X-XR.Y.Z.I.I.H.H.H.H.Y.L.4.4.N.~.N.Z.4.<.<.<.<.l.v.v.<.l.b.E.A.Z.Z.Z.z.A.A.l.A.A.A.V.A.l.Z.v.v.v.v.<.<.l.Y.~.3.4.F.~.~.F.4.2.2.",
"Y.-XR.V.I.H.l.Z.H.l.Z.H.L.4.F.`.`.`.N.Z.H.4.6.<.v.G.v.v.l.z.z.z.A.Z.A.Z.A.A.A.A.A.A.V.Z.z.I.H.l.<.<.<.<.Z.L.L.4.4.F.F.F.4.3.2.2.",
"V.`.`.`.I.I.H.l.I.v.6.H.~.~.~.OX@X`.~.L.H.6.<.<.G.H.v.v.z.z.z.z.A.Z.Z.I.V.V.A.A.A.A.A.Z.Y.I.H.<.<.<.v.<.4.H.~.4.4.5.5.4.4.2.2.2.",
"C.`.`.`.I.H.H.Z.H.H.H.H.~.6.6.~.@X`.~.F.L.L.L.H.6.<.<.v.Z.l.z.R.I.I.I.A.V.V.V.V.A.Z.Z.Z.H.H.H.v.<.v.H.6.N.4.L.4.5.~.L.4.4.4.2.4.",
"`.`.L.L.L.4.6.H.L.6.}.}.L.4.6.~.&X|.6.6.~.}.}.Y.v.<.<.I.Z.l.A.E.-X`.V.N.Z.V.S.@XY.N.Z.Z.H.H.L.4.}.L.N.N.N.5.4.3.3.5.5.5.4.2.2.3.",
"&X@X`.`.L.L.6.6.4.L.OXOX~.4.6.OX|.~.5.6.~.}.`.~.H.6.l.H.Z.l.Z.R.-X`.V.N.Z.F.C.C.`.N.Z.Z.Z.H.4.6.L.L.5.6.~.4.5.3.3.4.4.5.4.2.2.2.",
"&X&X@X&XOX~.L.}.6.6.}.OX|.6.|.<X|.5.5.6.~.{.~.~.6.H.Z.l.I.Z.Y.R.`.@X`.`.`.~.C.F.`.N.N.L.L.6.5.6.6.4.6.5.5.5.3.3.3.5.5.3.3.3.3.3.",
"~.~.~.{.OX~.L.}.}.}.OX}.7.6.7.<X|.F.5.5.~.OX|.6.6.L.H.H.L.R.R.Y.~.`.@X`.@X`.F.F.~.L.N.~.~.~.6.5.5.5.6.5.5.3.3.3.5.5.4.4.4.3.3.3.",
"OXOXOXOX}.}.}.}.}.7.7.7.7.7.7.7.7.7.7.7.7.OX|.7.4.~.`.`.L.Y.`.-X`.~.~.`.OX}.OX~.&X7.4.5.5.7.7.5.3.7.7.3.3.3.3.3.5.5.3.3.4.4.4.4.",
"OX2XOX$XOX}.}.}.$X7.$X8.8.8.8.OX7.7.7.7.7.<XOX7.6.6.~.~.N.N.V.`.~.`.~.~.}.OX|.~.OX6.5.5.7.7.5.5.5.7.7.3.3.3.7.3.5.3.4.3.5.3.4.3.",
"2X2X2X$X7.$X7.8.$X$X2X$X8.8.8.<X7.7.7.7.7.<XOX6.4.6.~.L.N.4.N.~.`.~.L.~.}.OX7.6.OX7.6.5.5.5.5.5.7.7.7.3.7.7.6.6.5.3.5.5.3.3.5.3.",
"7.OX8.2X7.7.$X8.OX7.7.7.7.7.7.7.7.7.7.7.7.2XOX6.6.}.~.~.N.N.~.`.`.`.~.~.}.}.}.6.OX7.6.5.5.5.5.5.6.7.7.6.3.6.6.3.4.5.4.3.4.5.4.3.",
"7.7.7.7.2X7.7.$X<X|.8.F.8.8.8.7.7.6.7.3.7.8.7.7.7.OX}.6.L.4.L.~.`.~.~.L.}.}.$X7.7.6.7.7.3.3.8.5.7.7.5.4.3.6.3.,.4.4.4.5.4.4.Z.D.",
"8.8.$X7.7.7.8.8.<X>X>X8.<X7.8.8.7.6.7.3.7.7.7.6.|.7.7.6.6.4.4.`.&X`.~.~.}.}.7.7.7.7.7.7.3.6.5.5.7.6.5.5.6.6.6.6.4.5.2.4.4.4.D.D.",
"<X<X<X8.<X7.7.7.|.>X>X>X>X8.>X5.7.7.7.7.7.7.7.6.7.7.6.6.4.4.4.~.}.~.L.6.}.OX7.7.7.6.3.7.7.3.7.5.6.6.5.4.4.6.4.6.4.4.2.2.2.5.5.D.",
"8.8.8.8.7.7.<X7.|.|.8.8.8.5.8.8.7.7.7.7.7.7.7.6.7.7.6.6.5.4.6.6.~.L.6.L.6.OXOXOX6.3.3.3.3.7.7.3.5.5.4.4.5.4.4.4.5.4.5.2.5.2.5.5.",
"7.7.7.7.8.8.}.$X7.7.8.8.8.8.8.8.8.8.8.8.8.7.7.7.|.|.|.|.5.5.7.6.~.C.D.Z.@X;X@X@X7.5.5.7.5.3.5.7.5.5.5.5.5.5.4.4.4.4.5.4.,.3.3.4.",
"7.7.7.7.8.7.OXOX7.8.8.8.8.8.8.8.8.8.8.8.8.7.7.7.5.F.5.5.5.5.7.7.@XF.4.Z.F.F.C.@X|.7.5.5.5.5.7.3.5.5.5.5.F.F.5.5.6.4.4.4.3.<.6.3.",
"7.7.7.7.7.7.OX}.7.7.8.8.8.7.7.8.8.8.8.7.7.7.7.7.F.@XF.5.3.5.6.|.&XN.2.Z.Z.D.`.`.F.|.7.5.5.7.7.3.5.5.F.|.F.5.5.4.6.5.5.4.4.4.6.6.",
"7.7.7.7.$X7.OX7.7.7.7.7.8.7.3.3.8.7.7.7.7.6.6.6.@X@XF.5.4.5.6.~.Y.4.2.Z.D.Z.F.:X@X|.7.3.3.7.7.3.5.5.F.>X|.F.4.3.6.5.5.4.6.6.6.6.",
"8.8.7.8.2XOXOXOX7.7.7.7.7.7.7.7.6.L.L.H.6.6.4.Z.Z.4.2.4.Z.F.@X;XY.4.<.Z.Y.Z.N.{.F.Z.2.3.6.3.4.3.3.5.~.~.F.4.5.4.6.6.5.6.4.6.6.7.",
"<X2X7.2X2XOX7.OX8.8.6.7.3.7.7.7.6.H.H.H.6.<.<.<.<.<.2.Z.Z.C.@X@XL.4.4.H.Z.H.Z.Y.F.4.2.4.4.3.3.6.3.3.4.N.6.6.5.5.5.6.~.~.6.4.5.6.",
"8.8.7.7.OXOX6.OX7.7.7.3.7.8.7.7.4.<.l.H.H.4.4.4.2.4.4.4.D.Z.D.Z.6.6.4.4.4.4.N.N.4.4.3.4.,.4.3.6.3.4.4.4.4.4.5.5.6.5.5.5.N.4.4.4.",
"8.7.7.7.OXOX7.OX7.7.8.8.8.7.7.7.<.4.H.H.H.Z.4.4.2.4.4.Z.F.5.Z.2.4.4.4.4.3.4.4.4.4.N.4.2.,.4.6.4.4.Z.l.4.4.5.4.5.|.5.4.4.~.6.4.,.",
"7.7.7.7.7.7.7.7.7.7.6.7.7.7.3.3.4.<.<.6.3.3.,.,.1.,.7.8.5.2.4.5.4.4.5.:.3.6.,.6.4.6.6.6.4.,.,.<.<.:X>.-.Z.2.2.Z.F.F.F.F.Z.Z.5.Z.",
"7.8.7.7.7.7.6.7.6.6.5.7.6.7.3.3.6.H.}.}.7.3.,.1.,.3.6.7.5.2.4.Z.3.,.3.3.5.4.:.6.6.6.6.<.4.4.6.l.<.l. .| A.Z.F.F.|.|.F.F.Z.Z.Z.Z.",
"8.7.7.7.7.3.6.7.6.6.5.5.6.7.6.5.L.H.6.6.7.3.6.6.7.6.6.7.4.4.Z.2.<.:.:.:.3.,.:.4.4.<.<.<.<.<.Z.l.l.h.}  .Z.Z.D.D.F.F.F.D.Z.Z.Z.Z.",
"8.7.7.7.6.6.6.6.6.6.7.6.6.7.7.7.L.4.<.4.6.3.7.7.7.3.3.6.4.Z.2.:.>.:.-.:.-.-.-.<.<.:.-.<.<.<.>.>.z.b.f.f.A.k.>.D.D.5.4.4.2.2.Z.Z.",
"8.8.7.7.6.3.6.7.7.}.}.~.OX}.6.7.4.<.6.6.6.3.6.,.3.1.:.:.>.<.>.%.&.;.;.;.-.-.>.>.>.>.h.l.h.h.;.t.h.n.n.z.A.k.Z.D.D.2.2.4.2.4.l.Z.",
"7.7.7.3.7.6.6.7.6.6.~.6.6.6.6.4.Z.<.<.4.<.6.3.3.3.:.:.:.>.>.f.@.*.;.;.k.;.h.z.;.$.;.h.h.h.h.t.t.O.u.g.f.f.k.Z.Z.F.Z.Z.<.4.l.<.l.",
"8.8.7.7.6.7.7.6.6.6.6.6.6.5.5.4.H.<.<.<.,.6.6.6.6.,.<.<.k.l.h.*.f.;.;.l.l.h.z.$.@.@.t.u.u.t.t.w.O.0.$.#.*.k.k.Z.Z.D.4.4.<.<.<.<.",
"7.8.7.7.6.7.7.6.6.6.~.6.6.5.5.5.<.<.<.<.<.<.<.<.<.,.<.<.k.l.l.f.f.#.o.h.h.f.f.o.O.@.O.w.t.t.t.r.u.0.w.t.d.k.k.Z.>.k.<.>.>.<.;.;.",
"5.6.6.6.~.OX}.}.L.N.N.6.4.4.4.6.<.<.6.6.<.v.<.>.<.>.>.;.>.k.k.k.;.@.@.;.f.#.@.#.X.X.X.w.w.L K y.0.t.t.t.*.*.k.A.k.*.-.*.;.h.h.$.",
"6.|.6.4.6.6.~.7.4.4.<.4.4.4.<.4.4.<.<.<.>.<.v.<.;.;.>.>.k.Z.>.>.;.;.#.f.f.#.#.w.#.O.O.0.0.K L y.y.t.w.#.d.d.k.l.d.*.$.$.$.;.f.;.",
"7.|.6.5.5.4.6.}.5.5.3.4.6.4.<.4.6.<.<.>.-.-.<.>.;.;.>.k.Z.>.>.k.;.;.*.;.*.w.w.#.O.0.w.q.e.L _ y.g.y.w.d.d.k.k.f.d.$.#.$.$.$.;.f.",
"6.6.4.3.5.6.7.7.4.5.4.5.6.6.6.6.6.4.<.<.-.-.;.<.;.>.<.k.k.>.>.>.:.;.;.@.#.#.w.O.0.e.q.9._ X.0.y.y.y.t.f.g.f.f.f.f.#.$.$.$.$.$.h.",
"5.4.4.5.,.6.6.6.4.4.4.4.6.,.,.4.<.<.Z.l.>.;.<.<.<.<.;.<.k.Z.>.;.>.;.;.@.O.O.0.L 9.q.e.q.9.9.e.x.y.y.g.t.e.e.e.w.t.w.$.t.;.$.$.;.",
"3.4.4.4.6.6.6.6.4.4.4.4.,.:.:.:.>.>.l.<.;.-.;.>.v.<.;.;.k.Z.>.=.f.f.f.#.#.0.0._ q.q.r.q.S 9.y.x.x.x.y.w.w.w.e.e.t.w.O.$.$.$.@.@.",
"4.4.6.5.4.6.6.4.4.<.<.<.<.:.:.-.>.k.l.k.$.| -.>.l.h.<.h.k.k.>.;.>.f.;.#.O.0.0._ ) q.e.e.S 9.y.x.x.j.y.y.w.0.w.0.0.0.O.O.@.#.@.@.",
"4.6.4.4.4.4.4.<.,.-.-.:.<.<.>.>.k.f.k.k.*.@.;.l.;.<.;.<.k.f.*.;.k.*.;.w.w.0.9._ ) ) q.e.S 9.y.x.y.y.y.0.w.0.9.9._ 0.w.O.O.@.@.@.",
"<.3.<.,.,.<.3.<.<.<.>.;.>.;.*.l.E.h.f.#.@.l.l.;.;.l.k.f.;.;.;.;.k.f.*.#.0._ _ _ r._ ( ( ( 9.0.y.x.q.y.e.9.0.0.K L 0.O.J o.$.*.o.",
"4.4.3.,.<.<.<.<.;.;.$.$.h.$.t.b.3Xf.#.#.f.f.f.f.;.k.l.>.f.;.;.;.*.d.d.w.O.L 0._ r.` _ _ 9.X.9.e.y.r.y.e.9.w.0.0.0.L L L o.o.o.o.",
"4.5.<.:.>.<.<.l.;.f.f.g.u.u.j.x.n.0.O.w.f.$.;.f.f.l.h.h.;.f.;.*.;.;.w.#.0.L O._ r.q.q.q.0.9.0.9.y.r.w.0.w.e.w.w.$.L J J o.O.o.o.",
"3.4.3.<.>.>.>.f.h.t.t.0.O.u.n.r.0.0.w.w.#.;.#.$.f.<.h.;.*.#.#.w.t.t.w.w.$.0.L O.0.0.t.w.0.0.d.0.0.0.e.O.#.w.#.w.O.O.o.J ..#.$.o.",
"2.3.2.:.>.;.;.f.w.w.0._ _ s.m._ L 0.t.$.O.t.$.#.;.f.$.$.$.$.$.$.#.w.w.w.O.O.O.O.O.w.w.w.O.w.w.w.0._ O.K X.@.O.@.@.#.o.J J O.O.G ",
"2.2.:.-.;.;.$.#.J K H _ ` { p.^ _ _ _ L w.t.@.$.$.$.$.$.$.$.$.O.w.w.t.w.O.O.O.O.o.O.#.w.#.w.w.X.0.L X.J ..@.+.@.;.o.....J t r r ",
"4.2.:.&.;.;.t.#.i i w ` ^ B R B _ _ L L w.t.#.t.$.$.$.$.$.$.$.t.O.w.w.w.O.O.O.@.o.@.$.#.w.#.w.9.0.K O.X...@.*.&.;.@.o...J p e r ",
"4.2.=.&.*.f.t.w.y.q.) i.] = U R Y ` ` _ t.u.t.g.$.$.O.O.$.w.t.t.w.w.t.O.O.O.@.$.@.o.O.@.O.#.#.w.w.K 0.#.+.*.:.&.@.*.#...G J a u ",
"2.>.&.%.+.#.w.e.y.q.[ i.' V b V I B R ` 9.0.y.e.w.w.w.O.$.$.$.0.X.w.d.O.....o.@.o.#.@.#.d.w.w.w.0.L 0...} =.%.%.*.*.o.r G 4 4 1 ",
"*.*.*.*.f.f.w.w.( ) [ ] T b V V U I R / ` q.e.w.w.w.0.O.O.w.O.$.#.w.#.X.o.o.@.@.@.@.@.@.w.#.O.w.O.O.d.O.} d.d.*.*.*.J p r G 4 3 ",
"k.d.*.;.f.e.O.( ( ) ^ B V V b x v v Z R ) q.9.9.e.9._ _ O.O.O.O.#.X.X...@.o.@.@.@.+.+.@.O.O.9.9.a X.f.#.} d.d.*.%.#.J p 3 4 3 4 ",
"%.%.%.*.d.w.9.q.) ` C = x b c j l v v I / ) ) ) r._ ~ ( L O.K K X.X.X...@.+.@.@.*.+.+.*.O.X.9.X.e K w.X.} +.*.%.%.#.a u 1 3 3 q ",
"..O.#.w.t.w._ ` S ^ Z N x k k c z b b B R / T ^ / ^ D ~ _ L L L 9.X.X.+.@.o...@.*.o.@.#.X.X.X.} u L O...t ..%.+.o.O.K 4 1 $ 4 q ",
"#.w.w.0.0.9.( ) ~ ^ Z V x h d k z l l b Z I I T R T I D Y ~ _ _ 9.X.} X.#.@.o.+.#.@.#.#.#.#.X.X.J K O.J } ..d.O.@.O.X.3 3 2 q q ",
"X.9.X.K _ _ ) q./ Z V x c k k d n f j c v B U U U U I I I ~ _ ( 9.X.X.X.@.#.o...+.@.@.@.*.w.O.J K K K O.....#...p X.a 3 : 0 w 0 ",
"K 9.9._ _ _ ~ C ^ Z V x h k m n M g k z l v U v U U U v I T ) K K 0.9.X.O.o.......#.O.X.w.e.O.K L L K L a e p e , e 1 : : i w w ",
"L ( _ H H ` / ^ ^ Z V c c k n d n k k f j E E P b P U v B Z ) ( K 0.0.O.X...X...F O.O.X.O.w.0.K G L L O.u 4 X.0.a y > : < 0 S C ",
"( ~ ~ w w ^ C C V V A A c k k d s s k z P ! E E P P l v N C S ~ K L X.O.O.....O.J o.J J O.0.e.a _ L H L _ L 0.0.e.q.a : @ . . < ",
"` ( ~ w w ~ C B V V Z m k k k d d s d d k l j j l j - v Z Y ~ ~ _ K K 0.O.J X.O.J J J J K K ( 9 q H H H H H _ a.a.9.: . < # @ N ",
"` ` ) C w Y Y Y N V A V k k k g d s d d f l j j - X - v T ^ ~ H ( K K X.O.O.O.J o.L L L y i a 0 + 3 ~ H D 9 5 _ q.9 . @ < @ % C ",
"^ / C 6 6 8 T B N N Z U x k j h s s k j b E A c v v v I Y Y H u i K K G J O.L J L J K H q w _ H q i w 2 5 5 $ w q.: . < < % * Z ",
"8 ~ w * % 6 8 = N v V v j j j j d g k h b Q W V U U U I Y ~ ~ H i ( K u G _ O.L L H G H H ) ` ~ ` H 2 o & w w H ) : : 0 < % 6 N ",
"C C 6 6 6 6 B = Z B Z v l l l j k g k k N ' Q W N B T T Y ~ ~ ( ( _ K u G K L L K G 4 D ~ _ ) w < w w q 7 w S w 0 @ < 0 @   O * ",
"C S 6 C T w C = v B W Q E b c d d d k c N V N N = = 8 T ~ D H K _ ( K u u p G G 4 4 4 D ~ ~ ~ i # H ~ 7 $ # C 8 < @ @ < 8 6 = N "
};
