/* XPM */
static char *xpm_[] = {
/* columns rows colors chars-per-pixel */
"64 64 254 2 ",
"   c #090904",
".  c #140C01",
"X  c #170902",
"o  c #1D150A",
"O  c #181407",
"+  c #0A1617",
"@  c #181C17",
"#  c #070F0F",
"$  c #24170A",
"%  c #351A08",
"&  c #241C14",
"*  c #29160C",
"=  c #29261B",
"-  c #38291A",
";  c #332207",
":  c #1A2626",
">  c #1B3336",
",  c #282926",
"<  c #372C25",
"1  c #2C312B",
"2  c #3B342D",
"3  c #373429",
"4  c #2A3635",
"5  c #363A36",
"6  c #141D20",
"7  c #472A16",
"8  c #48331A",
"9  c #55391B",
"0  c #4C2A0A",
"q  c #473828",
"w  c #553B27",
"e  c #453B35",
"r  c #503730",
"t  c #633E24",
"y  c #3C423A",
"u  c #59432A",
"i  c #4A4235",
"p  c #48453B",
"a  c #5C4C3C",
"s  c #564737",
"d  c #544A35",
"f  c #674929",
"g  c #644B37",
"h  c #67523B",
"j  c #755939",
"k  c #74522D",
"l  c #7D623C",
"z  c #5E421D",
"x  c #293C40",
"c  c #3A4746",
"v  c #3C4E50",
"b  c #4A4B45",
"n  c #564C45",
"m  c #4A534B",
"M  c #53534B",
"N  c #595448",
"B  c #4A5655",
"V  c #535A54",
"C  c #585B57",
"Z  c #434C51",
"A  c #6C5A44",
"S  c #645B4B",
"D  c #6C5C4B",
"F  c #665545",
"G  c #745C45",
"H  c #795C48",
"J  c #655C52",
"K  c #765F51",
"L  c #5C6358",
"P  c #4F635A",
"I  c #6C604B",
"U  c #74624D",
"Y  c #7B634C",
"T  c #776445",
"R  c #6E6454",
"E  c #6B6A5D",
"W  c #676559",
"Q  c #736454",
"!  c #7B6553",
"~  c #7C6B54",
"^  c #74655B",
"/  c #736A5C",
"(  c #7B6C5C",
")  c #736856",
"_  c #7C715C",
"`  c #6D705F",
"'  c #5C6463",
"]  c #5C6966",
"[  c #596C73",
"{  c #656B64",
"}  c #6C6C64",
"|  c #656A67",
" . c #726D62",
".. c #776E64",
"X. c #6B746C",
"o. c #67746A",
"O. c #737164",
"+. c #7B7363",
"@. c #74736B",
"#. c #7B766B",
"$. c #7D7A6D",
"%. c #777A6C",
"&. c #657474",
"*. c #6B7474",
"=. c #6C7C7B",
"-. c #6A7777",
";. c #747C74",
":. c #7C7B73",
">. c #747C7A",
",. c #7B7E7B",
"<. c #767673",
"1. c #676F72",
"2. c #575F61",
"3. c #855D37",
"4. c #86582D",
"5. c #87633B",
"6. c #96643A",
"7. c #876947",
"8. c #846B57",
"9. c #8B7353",
"0. c #84745C",
"q. c #8C7B5C",
"w. c #87755A",
"e. c #967859",
"r. c #92724D",
"t. c #847363",
"y. c #837B64",
"u. c #837B6C",
"i. c #8B7C6B",
"p. c #897765",
"a. c #967B65",
"s. c #837D73",
"d. c #847A76",
"f. c #91786C",
"g. c #A27E5E",
"h. c #6C8279",
"j. c #7B8174",
"k. c #75827C",
"l. c #7C847C",
"z. c #7D8A7D",
"x. c #768377",
"c. c #A3845D",
"v. c #8C826D",
"b. c #86846B",
"n. c #988569",
"m. c #848374",
"M. c #8B8473",
"N. c #83847B",
"B. c #8B857B",
"V. c #848A7D",
"C. c #8B8B7C",
"Z. c #8A8975",
"A. c #928B7C",
"S. c #978977",
"D. c #98917A",
"F. c #A58768",
"G. c #A48C76",
"H. c #A59579",
"J. c #AD956C",
"K. c #9F8F5E",
"L. c #C1A17B",
"P. c #6A7E83",
"I. c #727E81",
"U. c #6C8688",
"Y. c #748484",
"T. c #7B8583",
"R. c #7D8A84",
"E. c #73868B",
"W. c #748A8B",
"Q. c #7C8C8B",
"!. c #798788",
"~. c #7C918C",
"^. c #77938B",
"/. c #6E8A90",
"(. c #748D93",
"). c #7B8D92",
"_. c #778E99",
"`. c #759195",
"'. c #7C9294",
"]. c #75949C",
"[. c #7B949B",
"{. c #7C999C",
"}. c #7C9996",
"|. c #6C938B",
" X c #7697A0",
".X c #7C9AA2",
"XX c #7C95A3",
"oX c #7CA19E",
"OX c #838583",
"+X c #838B84",
"@X c #8B8B83",
"#X c #838C8B",
"$X c #8B8D8B",
"%X c #878685",
"&X c #928D83",
"*X c #968B83",
"=X c #84928C",
"-X c #8A938C",
";X c #899387",
":X c #949284",
">X c #9A9383",
",X c #92948C",
"<X c #9A988B",
"1X c #828E93",
"2X c #858E96",
"3X c #849494",
"4X c #8B9593",
"5X c #839995",
"6X c #8C9A94",
"7X c #82959A",
"8X c #839A9C",
"9X c #8B9B9B",
"0X c #8B969B",
"qX c #949A94",
"wX c #9C9C93",
"eX c #939D9C",
"rX c #969997",
"tX c #A59988",
"yX c #A59B93",
"uX c #AD9783",
"iX c #8DA099",
"pX c #94A19D",
"aX c #9CA29D",
"sX c #9BA194",
"dX c #B6A88C",
"fX c #A5A69B",
"gX c #B5A898",
"hX c #B4AB92",
"jX c #839DA3",
"kX c #8799A4",
"lX c #929BA4",
"zX c #8AA4A6",
"xX c #93A2A3",
"cX c #9AA8A7",
"vX c #9AB0B3",
"bX c #A8ABA6",
"nX c #B6ADA5",
"mX c #ABB1A6",
"MX c #B3B3AC",
"NX c #BAB4A8",
"BX c #A9B5B4",
"VX c #B8BBB3",
"CX c #C7AB93",
"ZX c #C9B9A9",
"AX c #D3BAAC",
"SX c #BDC4BB",
"DX c #C6C6BA",
"FX c #D3C7BA",
"GX c #E3CBAD",
"HX c #D1D2CA",
"JX c #E7DCD4",
"KX c #F7E9D8",
"LX c #FCF4E8",
"PX c #EFF2EE",
/* pixels */
"n.F.G.S.n.i.:.VX$ e.e.J.c.c.J.c.F.F.r.J.K.K.J.H.H.nXhXFXnXdXG.n.F.n.H.F.H.L.D.D.Z.D.tXtXhXhXdXdXdXn.uXn.ZXA T J.F.g.G.w.a.a.e.L.",
"F.dXCX>XS.b.;.mXX H c.r.7.e.c.F.S.n.H.K.J.H.H.dXZ.Z.;XV.B.D.n.n.n.n.S.D.D.S.Z.D.Z.M.Z.@XC.<XD.D.n.v.S.0.H.! 9.F.F.G.S.f.f.8.7.j ",
"uXa LXi.- %.x.sXX g G l w.q.tXC.B.<X@XA.b.C.M.@X%X+X=X~.$Xd.uX*XS.&X%X,X@X;XsXC.N.$XQ.3X5XR.;XC.C.tXs.B.Q ! q.n.G.F JXn 2 i.8.7.",
"gXa LXt.e o o.sX$ h 8.0.b.KXN L !.#XeXqX@X@.VXOX#X8X^.5XrXrXKXJ *X,X0X3X3X4XSXp | #XE.].`.iX=XPXM C @Xs.S.! Y S.^ HXLX$X1 2 p.g ",
"yXq t.s e X } gXX K ( y.v.gX5 # 0X'.3X=XaX| ' : '.}.jX.X5X>.JX& & $X3XlXlX0XeX5 @ !.8X].jX[.| qX4 # -XV.f.8.G 0.yXC >.' : # M.h ",
"&Xn * $ X , :.gXX A +.+.v.. @ Z #X3X=X6X4X4 5 + 7XjX].zX8X6XO O M 6X0X'.}.xX1 @ V Y.(._.jX8X0X# # , -XN.D.w.T v.$.@ 4 : @ @ #.Q ",
"m.$.a q B.N.<.sXX F _ b.0.>Xl.6XOXT.x.R.R.5X' 7X).8XU.jX[.!.' >.Q.W.Q.5X9X~.5XY.E.}.`.{.{.zX8XY.B Q.OX,X( Y A M.d.| , + + >.#.S ",
"M.S.hXD.yXyXqXmXX A h w.q.b.:Xm.B.C.j.z.z.z.,.OXT.!.E.xX!.T.qXT.k.T.=X=XR.;X;X6X4XR.Y.Q.Y.Q.Q.#X0XqX&XB.f.8.! S.+.d.d.#X$X,.%X} ",
"u % 7 7 % $ = J X % 0 0 t 9 9 8 w w 8 8 q 3 q q 2 p p p M i a n n s n i i r q s s 2 e e e p e s J S i h w 7 G h F S I E } O.M p ",
"q.a.n.f.f.N %.wXX w k 5.k 5.5.3.H Y A D I F ) ! t.n J I s d p.u s s n F s F h h g F Q ^ ^ s A a s q 8 7 u 8 A 8.t.) R N N N C m ",
"n.w.D.JXN S z.mX- G k 3.5.3.7.7.v.$.s.O.$.%.+.#. .} %.O.O.F A U ..@.;.,.%.W _ i.u.$.} *.>.;.O._ 8.q.7.k j T 9.9.w.p.KXI +.I m.C ",
"n.v.D./ $ p iXqXX w 7.5.r.c.GXH.y.l.;X@XN.fXwX,.,.%Xx.j.$.+.8 ~ wX+XY.Q.R.z.W Z.+.%.;.~.Q.k.V.S.~ 7.r.3.5.k 9.8.0.s D.; - N Z.V ",
"D.>X= = , <.+XbX$ 8.0 7.r.c.f - W x.z.;Xz.qXb qX;.+XV.V.j.S GXhXy =X5XE.3Xl.fX` O.E &.W.W.Q.W HX- H F.g.j 7.! i.B.@.& & N <.OXV ",
",XaX,XB.$XrX4XeXX ~ q.F.c.e.q.b.Z.%.z.+X-XBX| OX#X-Xz.;XV.<Xi y z.Q.W.}.'.6Xj.1 y E o.E.9X~.-X@ $ S.J.r.3.k p.B.OXT.4X,.l.#XT.C ",
"9X3XwX-X1X9XY.#XX & n.D.H.H.b.Z.C.Z.;X;X=XR.*.+X#XT.=X;XR.+Xj.+X8X{.zX8X~.Q.6X@XR.B =.5X).Q.Q.4X+.p.e.7.e.F.I :.#X5XY.!.Y.h.T.V ",
"8X9X6XqXeX9XiX=X. a b.>XD.Z.;X,X@XE ;Xz.X.pX' cXeXL =X-Xm bXl.l.}.jXE.W.R.=X>.=X=.] &.R.7X[.5XT.u.i.e.3.k f A m.+X).1XY.!.3X!.V ",
"6X-X,XfX,.cXcX~.. ) u.*X:X&X-XqX@XC aXX.h.SXm @XbX5 %XsXy bXN.y =XvX&.=X} 5 wXqX5 cX1 #X7X[.7X=Xu.q.e.6.6.3.5.y.C.%X#X-XqX!.#XB ",
"5X-XbXPX4 4 cX~.  ) S.>XqXqX-X4X#XL cXX.;.SXM V.fX5 C.fXp VX#.3 aX4X' qX} p fX .b cX= +X8XjX8X#XM.a.r.5.6.4.j 0.V.@.JXmX@ &.5XP ",
"k.pX@ + : : zXiX  ) B.V.-X-X6X=X#XC cXX.;.SXV C.gX3 fXfXV SX$.3 bXk.' aXE d fXN m cX, OX'.].7X-X@Xn.e.7.3.4.j y.N.l.5 1 + c 4XB ",
"~.=XT., > P.vXvX. ) C.N.-XiXiX6X$XL bXX.;.HXM s.fX3 fXmXy DX$.1 bXk.' aXE i tXN V aX, #X8X[.7X3X-XA.a.9.3.3.j Z.V.Q.' + x P.5XV ",
"[.8XzXvXcXvXjXBX. ) Z.V.6XiX6X4X4XC aXo.*.VXm @.nX1 sXfX3 HX&X, mX>.L fXE p >XC ' eX, +X8X[.7X3X-X@XM.q.7.3.G C.T.7X8X].jXjXY.B ",
".X.XzXzXzXzXzXBX. ) s.V.iX6X3XOX4XC pXW o.VXM #.MX3 fXfX3 JXwX3 MX| | MXE d tXN X.aX1 +X[.].[.3X4X=XZ.y.9.T U B.Q.XX/..X]./.!.' ",
"{..XzXzXzXvX{.vXo 8.%.V.6XiXeX#X$XV eX] o.MXC s.gX2 sXfX, HX&X3 MX' o.VXE d <XM l.cX1 +X8XjXjX'.7X1X+Xy.w.7.) %X1X_..X X.X.XY.' ",
".XoXzXzXoX.XzXBXX (  .V.6XiXlX%X#XV pX{ o.mXV s.nX2 sX,X5 HX-X3 MX' W MXO.p :XM *.pX5 #X_. X8X8X8X1X+X$.w.T ) $X2XXX.X]. XjX!.{ ",
"8XiXzXoXvXzX/.cXo R O.=XiXiXeX#X#XB eX{ { fXM Z.nX2 sX;X: HXC.3 MXV { SXW N <XM C cX5 Y.[. X[.}.(.Q.R.b.~ T ..d.).XX_..X].zXI.L ",
"'.xX5XzX5X8XzXxXX ^ %.l.;XiX4X6X$Xm qX] o.aXp :XgX3 sXsX= DX:X2 mXV { mX} N <XV B 9X5 Q..X X(.7XE.3Xz.%.w.G ..$X2XkX_.].].(.OXC ",
"aXOX6XpXeX9X).xXo S } V.5X5X6X=Xl.m eXL L fXp *XNXq <XC., DX:.p bXm } fXE N fXn B xXy >.`.].[.8X!.=Xz.$.p.h  .OX2X_.)._.[.7X-.V ",
"@X&XbXN.| Q.W.9X. ) $.{ R.iX-X6Xl.V 6XL L fXi *XgX3 tXC.2 ZXE 2 bXM } fX` I <XN V 9Xb k.8X[.(.Q.#XT.j.+.~ u s.OX).2XbX1.[ 3X-.C ",
"wX .JXnXy x E.xXo R i :XV.;X<X;X@Xp -XC W <X< tXyXq >XC.i nXJ 3 wXM } sXR S D.N V -Xp x.5X`.W.=X+Xj.#.$.0.d M.+X!.c PX' c B T.' ",
":X,Xd.C 5 , ).xXO ( q b.A.j.>XM.:.M -Xo.n >Xq gXnX- tXB.i NXQ < yXi ` :XR S tXN C ;Xb @.=.U.R.k.;.j.+.( p.a m.#X#X: <.b 4 + #X&.",
"<XV.& O , 1.(.xX$ 8 U h I d _ b.J e $XW i :X- S.uX- D.A.i tX/ < D.i R D._ S v.S M l.p W | [ ' m L I N d F q @.R.k.>.= @ : &.Y.[ ",
";X+XqX%X2X2X_.eXO U U ( A ~ _ ) C J V <.N.E  .D Q ) D S d C N C p W W W C N S N { ;.y %.!.U.Y.x.%.` +.+.! h m.k.R.!.@X%X$XQ.Q.[ ",
"R.pXeXeXvXkX_.bX. I w.0.b.Z.A.@X-X3X5X~.=X;X%XC.B.s.B.s.R.6X5X!.R.~.#XR.R.T.OX!.Y.&.&.Y.(.(./.W.k.j.u.y.8.G s.T.Y.3XQ.Q.8X(.7X[ ",
"9XQ.eX0XkX_.kXrXO I _ _ M.C.C.$X4X8X{.}.5X=X=X-X@X:XC.@XcX'.8X5X'.3X5X'.3X).3X).).W./.(.].].`.(.W.z.m.u.w.A u.,.W.(.).'./.].[.[ ",
"4X6X$XeX2X2X0XcXO I ~ $.C.;X$X$X7XkXoX8X6X6X6X6X:XD.tX>X0X7X8X[.8X8X8X8X7X7X7X8X[.[.[.[.[.`.`.`.W.OXl.u.0.A $.,.!.).3X4X)._.E.2.",
"4X4XqXcXkX2XeXrXO I _ b.;X;X$X4XkXkX{.8X9X6X6XqXD.D.uXD.qX).8X'.8X8X8X8X8X[.8X8X[.[.[.].].].].`.E.T.l.:.( D #.,.!.3X6XT.2XkX-.1.",
"+Xl.@XBX2X2X1XbXO ) j.Z.#XQ.1X7XkXkXXX8X5X6X5X,Xb.K.9 b.d.lX_..X.X8X8X{.[.8XXX[.]. X X]. X].].].W.Q.I.:...R :.T.OX2XrXrXlX#XT.' ",
"eX$XPXMX4 Z 0XbXO ) y.m.R.W.).[.XXXXXX[.5X6X5X6Xb.n.j r.d.>._..X.X.X.X{. X.X X[. X X X].].].].`._.E.I.,.+.R <.T.1XI.HXrX6 OXR.] ",
"4X6X' 1.+ : #XaXo R +.x.R.).(.[.XXXX[.5X5X6X}.6X) l k r.i.OX[.].[. X XXXXX.X X X X X].].].].`./.(.E.I.,. .R @.>.T.2.mX} # c T.X.",
"!.Q.6 + + *.$XfXo I +.j.R.'.`.[. X[.[.[.5X5X5XiXZ.n.0 k i.m.3X X[.]. X X X X X X X X].].].]./.].(.E.I.;. .^ @.>.*.#X# # @ *.T.1.",
"E.7X9X3X).3X#XaX. N ) ;XR.Q.W.[.).[.8X7X3X3X7X3X%XS.g.e.e.u.=X[. X X X X].]. X X X].].].].(.(./.U.U.>.<.^ D #.>.!.-.h.o.Y.Q.Q.*.",
"[.kX8XxX5X7X!.qXo d b.C.#X'.5X^.~.~.`.7X2X3X3X1X$Xf.e.7.q.b.+X}.[.].].].].]. X X X X].].`.(././.U.U.*. .^ D d.,.I.E.k.~.E.W.I.*.",
"XXjX9XcX5X'.Q.aX. N J :XR.Y.~.W.=X^.(._.1X1X).3X$X%Xa.j q.b.z.3X'.[.].].].].].].].].].].(.(.(.W.U.h.@.^ ! F u.<.I.).Y.W.'.7XY.T.",
".XjX'.9X8X5X3XbX. / F :X+XR.R.6Xz.W.Q._.1X1X1X1X2X$XM.w.b.b.j.=X'.`.`.[.`.].].].].]./.|.(.(.E.U.h.h.<.^ 7.g ..<.>.Q.!.h.Y.7XI.!.",
"8X8X5X3XxX5XQ.bX$ / u.:.+X6Xz.=Xo.k.).7X1X1X).).Q.%Xd.M.b.b.N.#X=X'.'.'.`.`.`.`./.`.W.W.(.W.E.I.>.;.O.) H g p.d.I.T.I.#XY.'.I.1.",
"1X3X0X4XxX6X=XaX& J u.$.@X#X+Xl.;.Y.2X7X#X#X#X3X3XR.m.Z.C.j.@XOX#XQ.Q.`.'.[.[.`.].`.W.W.W.W.Y.I.k.;.E Q K g d.d.<.#X%XOX1XI.I.&.",
"0X#XrX#X!.4X=XqX$ J ^ B.@XT.-Xl.R.Q.).).Q.R.Q.#X=XR.j.j.+Xl.N.%XR.Q.Q.Q.~.`.`.`.`.(./.E.U.Y.Y.T.,.;.E ^ H g t.d.%XI.%X,.I.Q.!.] ",
"%X#XmX@XB | #XmXo R ( #.%X%XV.l.l.T.!.).$X+XT.R.R.R.l.x.l.+X#.B.%XR.!.Q.~.Q.Q.W.W.W.E.U.=.=.T.OX<.:. .+.G g t.d.d.d.DXMX2 >.+X*.",
"$XN.NXrXy @ #XbXX D ) _ m.A.C.Z.z.R.z.z.@XN.j.x.x.R.x.x.;.:.A.C.Z.l.~.~.Q.Q.T.=XR.k.h.h.=.x.,.| bXM +.R ! g 0.t.( ^ *Xd.& b %X{ ",
"M.A.$ * = b ;X&X$ a ) ( v.u._ #.;.k.N.j.` m.} V.x.k.!.l.#.s.v.+.s.V.h.R.R.R.T.OX;.z.h.h.o.>.} M 5 3 +.+.8.g H t.0.% *XN X e B.C ",
"q.w.Y ; h 0.S.S.. a U U ) R _ W $.#.%.E %.$.:.:.V.:.:.%.$...u.( +.@XX.z.z.k.l.;.| @.<.X.X.X.%.} } +.+.! j j H 8.! ( X X q ! t.g ",
"7.9.7.q.n.n.H.F.X d F A I I d y.) +._ O.( / #.u.+.u.( ) i.~ ~ ( / B.} X.<.%.j.@.:.%.$./ #.W _ $.R 0.! Y k j H H 0.p...t.p.8.a.g ",
"e.e.a.a.g.r.e.a.X u w f f k j k k u Y h 0.) I I U w T G j j T G Q t.8.^ +.` _ R D F F h ) a A A g Y h j f f f 7.H 8.8.f.a.e.9.f ",
"8 ; % % % 0 t t X 8 d w z k k f u u w u - - ; w 8 u 9 8 9 8 u 8 a a a 3 i q i i d s s w u w q 8 8 w 0 9 f z % g w w r 7 7 0 0 f ",
"G.t.tXtXuXG.G.CXX S.G.a.dXCXAXZXZXZXZXFXFXNXNXNXZXhXZXAXAXZXuXZXnXNXDXZXDXMXfXnXNXZXZXnXgXgXgXdXdXH.a.r.c.7.t e.8.g.f.f.a.CXg.8.",
"S.*X<X*Xd.*Xd.f.X A 8.a.e.a.G.S.:X@X<X<XwXsX@X-X@X&X,XA.m.&X>XB.%XOX#XR.T.z.-XeXl.:.,.:.%.%.Z.$.i.w.8.7.7.7.f g.e.8.K t.8.H g 8.",
"f.%X%XrX5 I.>.OXX F A ( t.i.*X&X!.8X9X5X6X;X}.^.3XW.'.W.W.=Xz.pX).Y.E.h.^.~.+XbXT.Y.Q.~.x.l.N.u.m.v.t.! g.5.t e.e.H r r f.t.^ t.",
"*X^ PXHXB 6 -.OXX F ~ y.+.$.B.V (.].`.5X=X~.HX=.`.`.|.{.}.'.iX=.U.].`.`.U.W.!.-.E.8X|.|.^.~.j.nX@.W u.p.9.7.t e.8.CXKXLXe , d.d.",
"*X( ZXd.Z   -.$XX h U _ V.HXM + _./.lX1XpX| 9X: U.`. X/.W.&.PXc > /.U.oXW.E.T.B B U.}.{.^.~.N.DXp @ s.0.8.7.t 8.8.a.FXyXX @ 1.| ",
"f.7 F e   # *.;.X a ) _ ,X, : + `._.8X0XeXc v + `./.].(.W.Q.B 4 > `.].U.8XeXB 5 : [.|.|.|.k.j. .= , d.+.e.9.t 8.e.% 8.< 6   ' | ",
"9.9..     v o.z.  s )  .X.x.4 `.P._./._.lX).v E.U.W.[.(./.P.4 : P.(.|.`.8XxX' # P.).[.[.'.=X<.b @ #.u.0.7.7.t f.f.7 X # # 5 I.1.",
"9.9.v.u.:.>.V.qX  n ^ u.%.T.Y.P.P.I.I.kX1X).-.1.&.E.E.Q.I.-.] =.P.U.}.E.Y.qX$XT.1.I.1X2XeXX.#.tX$./ ! 0.j 7.3.f.8.*Xn 1 | <.<.C ",
"S.f.*X<X*XyX>X*X  n n Q Q  .;.| @.} | C ' } | } @.@.@.s.<.O.<.,.1.-.>.l.%.O.@.W d.@.<.}  .+.F D D F K g j g H uXt...%XOX,.d.,.M ",
"r r n n e ^ r f.  - & < - * - 3 e e 2 e e b 2 3 < < q q < - n 2 5 1 2 = = < & < & & - < < q w q q q 8 7 % % t 7 < - < , = , 1 b "
};
